<?xml version="1.0" encoding="UTF-8"?> <svg xmlns="http://www.w3.org/2000/svg" width="375" height="39" viewBox="0 0 375 39" fill="none"> <rect width="375" height="39" rx="19.5" fill="white"></rect> <circle cx="35" cy="19.5" r="5" fill="#E01614"></circle> <path d="M51.458 25V12.4H53.528L57.794 23.074L62.06 12.4H64.13V25H62.258V16.27L61.898 17.278L61.61 18.052L58.73 25H56.858L53.978 18.052L53.69 17.278L53.33 16.27V25H51.458ZM68.6158 16.072V19.492H72.6118V16.072H74.3758V25H72.6118V21.076H68.6158V25H66.8518V16.072H68.6158ZM85.8709 20.536C85.8709 23.65 83.4589 25.252 81.1009 25.252C78.7429 25.252 76.3309 23.65 76.3309 20.536C76.3309 17.458 78.7429 15.82 81.1009 15.82C83.4589 15.82 85.8709 17.458 85.8709 20.536ZM81.1009 23.56C82.6669 23.56 83.9989 22.354 83.9989 20.536C83.9989 18.718 82.6669 17.512 81.1009 17.512C79.5349 17.512 78.2029 18.718 78.2029 20.536C78.2029 22.354 79.5349 23.56 81.1009 23.56ZM87.8401 25V16.072H93.6001V17.728H89.6761V25H87.8401ZM103.976 20.536C103.976 23.65 101.564 25.252 99.2064 25.252C96.8484 25.252 94.4364 23.65 94.4364 20.536C94.4364 17.458 96.8484 15.82 99.2064 15.82C101.564 15.82 103.976 17.458 103.976 20.536ZM99.2064 23.56C100.772 23.56 102.104 22.354 102.104 20.536C102.104 18.718 100.772 17.512 99.2064 17.512C97.6404 17.512 96.3084 18.718 96.3084 20.536C96.3084 22.354 97.6404 23.56 99.2064 23.56ZM107.782 16.072V19.42L110.842 16.072H113.074L109.852 19.546L113.614 25H111.472L108.592 20.896L107.782 21.76V25H105.946V16.072H107.782ZM115.121 28.672V16.072H116.957V17.44C117.515 16.558 118.739 15.82 120.125 15.82C122.357 15.82 124.247 17.584 124.247 20.536C124.247 23.416 122.357 25.252 119.963 25.252C118.667 25.252 117.533 24.694 116.957 23.776V28.672H115.121ZM119.603 17.512C118.073 17.512 116.831 18.736 116.831 20.536C116.831 22.336 118.073 23.56 119.603 23.56C121.133 23.56 122.375 22.336 122.375 20.536C122.375 18.736 121.133 17.512 119.603 17.512ZM134.081 25H132.245C132.029 24.73 131.795 24.28 131.741 23.434C131.165 24.64 130.085 25.252 128.771 25.252C126.971 25.252 125.729 24.136 125.729 22.498C125.729 20.68 127.169 19.852 128.879 19.564L131.705 19.114V18.736C131.705 17.71 131.075 17.188 129.833 17.188C128.555 17.188 127.979 17.728 127.979 18.358C127.979 18.448 127.961 18.484 128.015 18.628L126.377 19.186C126.287 18.952 126.233 18.718 126.233 18.466C126.233 17.08 127.583 15.82 129.833 15.82C132.281 15.82 133.541 16.9 133.541 18.844V22.768C133.541 23.794 133.667 24.334 134.081 25ZM129.059 23.722C130.661 23.722 131.705 22.444 131.705 20.716V20.464L129.293 20.878C128.159 21.076 127.565 21.544 127.565 22.39C127.565 23.2 128.141 23.722 129.059 23.722ZM134.81 17.656V16.072H141.83V17.656H139.238V25H137.402V17.656H134.81ZM145.397 16.072V19.492H149.393V16.072H151.157V25H149.393V21.076H145.397V25H143.633V16.072H145.397ZM162.258 25V16.072H164.094V25H162.258ZM153.582 16.072H155.346V19.636H157.668C159.612 19.636 160.782 20.662 160.782 22.3C160.782 24.01 159.54 25 157.668 25H153.582V16.072ZM155.346 21.076V23.524H157.596C158.532 23.524 159.018 23.074 159.018 22.3C159.018 21.526 158.532 21.076 157.596 21.076H155.346ZM168.284 16.072V22.534L172.316 16.072H174.26V25H172.496V18.538L168.464 25H166.52V16.072H168.284ZM171.074 12.868H172.334C172.334 13.966 171.596 14.812 170.39 14.812C169.184 14.812 168.446 13.966 168.446 12.868H169.706C169.706 13.354 169.958 13.642 170.39 13.642C170.822 13.642 171.074 13.354 171.074 12.868ZM189.284 16.072V25H187.448V17.692H183.596V25H181.76V16.072H189.284ZM191.727 28.672V16.072H193.563V17.44C194.121 16.558 195.345 15.82 196.731 15.82C198.963 15.82 200.853 17.584 200.853 20.536C200.853 23.416 198.963 25.252 196.569 25.252C195.273 25.252 194.139 24.694 193.563 23.776V28.672H191.727ZM196.209 17.512C194.679 17.512 193.437 18.736 193.437 20.536C193.437 22.336 194.679 23.56 196.209 23.56C197.739 23.56 198.981 22.336 198.981 20.536C198.981 18.736 197.739 17.512 196.209 17.512ZM204.583 16.072V22.534L208.615 16.072H210.559V25H208.795V18.538L204.763 25H202.819V16.072H204.583ZM215.465 20.914V19.582C216.905 19.582 217.427 19.078 217.427 18.286C217.427 17.638 216.851 17.206 215.915 17.206C215.123 17.206 214.385 17.62 214.385 18.268C214.385 18.394 214.403 18.52 214.439 18.646L212.963 19.186C212.837 18.952 212.765 18.664 212.765 18.358C212.765 16.864 213.953 15.82 215.915 15.82C218.021 15.82 219.065 16.918 219.065 18.16C219.065 19.258 218.399 19.906 217.661 20.194C218.543 20.536 219.443 21.184 219.443 22.426C219.443 23.938 218.291 25.252 215.933 25.252C213.755 25.252 212.477 24.082 212.477 22.48C212.477 22.102 212.549 21.76 212.693 21.454L214.295 22.012C214.241 22.174 214.205 22.282 214.205 22.516C214.205 23.308 214.997 23.758 216.005 23.758C217.031 23.758 217.661 23.182 217.661 22.336C217.661 21.346 216.707 20.914 215.465 20.914ZM229.68 20.932H222.606C222.66 22.516 223.758 23.65 225.324 23.65C226.782 23.65 227.466 22.858 227.988 21.796L229.41 22.642C228.564 24.37 227.304 25.252 225.27 25.252C222.822 25.252 220.77 23.344 220.77 20.536C220.77 17.728 222.822 15.82 225.36 15.82C227.934 15.82 229.68 17.692 229.68 20.284V20.932ZM225.324 17.296C223.974 17.296 222.93 18.25 222.606 19.528H227.934C227.79 18.07 226.548 17.296 225.324 17.296ZM225.81 14.524V12.58H227.7V14.524H225.81ZM222.768 14.524V12.58H224.658V14.524H222.768ZM231.612 28.672V16.072H233.448V17.44C234.006 16.558 235.23 15.82 236.616 15.82C238.848 15.82 240.738 17.584 240.738 20.536C240.738 23.416 238.848 25.252 236.454 25.252C235.158 25.252 234.024 24.694 233.448 23.776V28.672H231.612ZM236.094 17.512C234.564 17.512 233.322 18.736 233.322 20.536C233.322 22.336 234.564 23.56 236.094 23.56C237.624 23.56 238.866 22.336 238.866 20.536C238.866 18.736 237.624 17.512 236.094 17.512ZM249.514 16.072V19.42L252.574 16.072H254.806L251.584 19.546L255.346 25H253.204L250.324 20.896L249.514 21.76V25H247.678V16.072H249.514ZM256.657 28.6L256.945 26.926C257.161 27.016 257.449 27.106 257.755 27.106C258.241 27.106 258.493 26.962 258.835 26.152L259.249 25.054L255.613 16.072H257.719L260.239 22.516L262.741 16.072H264.775L260.455 26.8C259.879 28.258 259.033 28.798 257.953 28.798C257.467 28.798 256.999 28.726 256.657 28.6ZM272.849 12.094L273.389 13.462C272.813 13.84 272.327 13.984 271.463 13.984C269.285 13.984 267.827 15.19 267.521 18.016C268.151 16.936 269.321 16.252 270.671 16.252C272.993 16.252 274.793 18.016 274.793 20.698C274.793 23.38 272.867 25.252 270.347 25.252C267.395 25.252 265.685 22.876 265.685 19.222C265.685 17.584 266.027 16.324 266.549 15.244C267.557 13.174 269.501 12.4 271.373 12.4C272.003 12.4 272.435 12.292 272.849 12.094ZM270.347 17.872C268.835 17.872 267.665 19.096 267.665 20.752C267.665 22.408 268.835 23.632 270.347 23.632C271.859 23.632 273.047 22.408 273.047 20.752C273.047 19.096 271.859 17.872 270.347 17.872ZM278.518 16.072V19.42L281.578 16.072H283.81L280.588 19.546L284.35 25H282.208L279.328 20.896L278.518 21.76V25H276.682V16.072H278.518ZM293.978 20.536C293.978 23.65 291.566 25.252 289.208 25.252C286.85 25.252 284.438 23.65 284.438 20.536C284.438 17.458 286.85 15.82 289.208 15.82C291.566 15.82 293.978 17.458 293.978 20.536ZM289.208 23.56C290.774 23.56 292.106 22.354 292.106 20.536C292.106 18.718 290.774 17.512 289.208 17.512C287.642 17.512 286.31 18.718 286.31 20.536C286.31 22.354 287.642 23.56 289.208 23.56ZM295.948 25V16.072H299.926C301.816 16.072 302.86 17.098 302.86 18.34C302.86 19.348 302.284 19.942 301.474 20.284C302.464 20.644 303.184 21.202 303.184 22.426C303.184 23.938 301.942 25 300.034 25H295.948ZM297.748 17.512V19.636H299.836C300.718 19.636 301.15 19.276 301.15 18.574C301.15 17.872 300.718 17.512 299.836 17.512H297.748ZM297.748 21.076V23.524H299.962C300.898 23.524 301.384 23.074 301.384 22.3C301.384 21.526 300.898 21.076 299.962 21.076H297.748ZM317.202 23.776V25H315.222V23.776H315.096C312.396 23.776 309.894 21.868 309.894 18.7C309.894 15.532 312.396 13.624 315.096 13.624H315.222V12.4H317.202V13.624H317.328C320.028 13.624 322.53 15.532 322.53 18.7C322.53 21.868 320.028 23.776 317.328 23.776H317.202ZM317.202 15.28V22.12H317.364C319.11 22.12 320.622 20.914 320.622 18.7C320.622 16.486 319.128 15.28 317.364 15.28H317.202ZM315.222 22.12V15.28H315.06C313.278 15.28 311.802 16.486 311.802 18.7C311.802 20.914 313.278 22.12 315.06 22.12H315.222ZM322.222 14.164V12.4H331.942V14.164H328.054V25H326.11V14.164H322.222ZM333.728 25V12.4H339.236C341.972 12.4 343.772 13.894 343.772 16.414C343.772 18.934 341.972 20.428 339.236 20.428H335.672V25H333.728ZM335.672 14.128V18.7H339.164C340.91 18.7 341.828 17.836 341.828 16.414C341.828 14.992 340.91 14.128 339.164 14.128H335.672Z" fill="#0C0C0C"></path> </svg> 