<?xml version="1.0" encoding="UTF-8"?> <svg xmlns="http://www.w3.org/2000/svg" width="377" height="39" viewBox="0 0 377 39" fill="none"> <rect width="377" height="39" rx="19.5" fill="white"></rect> <circle cx="35" cy="19.5" r="5" fill="#FBDE40"></circle> <path d="M58.028 16.324V12.4H59.972V25H58.028V19.348C57.47 20.194 56.552 20.752 55.238 20.752C53.024 20.752 51.278 19.258 51.278 16.378V12.4H53.222V16.306C53.222 18.034 54.194 19.024 55.58 19.024C57.038 19.024 58.028 18.052 58.028 16.324ZM70.3358 16.072V25H68.4998V17.692H65.3498L64.8278 22.966C64.6838 24.478 63.9638 25.126 62.8658 25.126C62.4698 25.126 62.1098 25.09 61.7678 25L62.0378 23.38C62.1998 23.434 62.3438 23.47 62.5058 23.47C62.8838 23.47 63.0098 23.2 63.0638 22.768L63.7298 16.072H70.3358ZM81.2155 20.932H74.1415C74.1955 22.516 75.2935 23.65 76.8595 23.65C78.3175 23.65 79.0015 22.858 79.5235 21.796L80.9455 22.642C80.0995 24.37 78.8395 25.252 76.8055 25.252C74.3575 25.252 72.3055 23.344 72.3055 20.536C72.3055 17.728 74.3575 15.82 76.8955 15.82C79.4695 15.82 81.2155 17.692 81.2155 20.284V20.932ZM76.8595 17.296C75.5095 17.296 74.4655 18.25 74.1415 19.528H79.4695C79.3255 18.07 78.0835 17.296 76.8595 17.296ZM84.981 16.072V19.492H88.977V16.072H90.741V25H88.977V21.076H84.981V25H83.217V16.072H84.981ZM104.979 21.76L106.401 22.678C105.555 24.352 104.169 25.252 102.297 25.252C99.7048 25.252 97.6708 23.344 97.6708 20.536C97.6708 17.728 99.7948 15.82 102.297 15.82C104.259 15.82 105.699 16.738 106.329 18.25L104.871 19.222C104.223 17.908 103.323 17.512 102.315 17.512C100.785 17.512 99.5428 18.646 99.5428 20.536C99.5428 22.426 100.731 23.56 102.315 23.56C103.665 23.56 104.385 22.894 104.979 21.76ZM114.997 12.094L115.537 13.462C114.961 13.84 114.475 13.984 113.611 13.984C111.433 13.984 109.975 15.19 109.669 18.016C110.299 16.936 111.469 16.252 112.819 16.252C115.141 16.252 116.941 18.016 116.941 20.698C116.941 23.38 115.015 25.252 112.495 25.252C109.543 25.252 107.833 22.876 107.833 19.222C107.833 17.584 108.175 16.324 108.697 15.244C109.705 13.174 111.649 12.4 113.521 12.4C114.151 12.4 114.583 12.292 114.997 12.094ZM112.495 17.872C110.983 17.872 109.813 19.096 109.813 20.752C109.813 22.408 110.983 23.632 112.495 23.632C114.007 23.632 115.195 22.408 115.195 20.752C115.195 19.096 114.007 17.872 112.495 17.872ZM127.988 20.536C127.988 23.65 125.576 25.252 123.218 25.252C120.86 25.252 118.448 23.65 118.448 20.536C118.448 17.458 120.86 15.82 123.218 15.82C125.576 15.82 127.988 17.458 127.988 20.536ZM123.218 23.56C124.784 23.56 126.116 22.354 126.116 20.536C126.116 18.718 124.784 17.512 123.218 17.512C121.652 17.512 120.32 18.718 120.32 20.536C120.32 22.354 121.652 23.56 123.218 23.56ZM129.957 28.672V16.072H131.793V17.44C132.351 16.558 133.575 15.82 134.961 15.82C137.193 15.82 139.083 17.584 139.083 20.536C139.083 23.416 137.193 25.252 134.799 25.252C133.503 25.252 132.369 24.694 131.793 23.776V28.672H129.957ZM134.439 17.512C132.909 17.512 131.667 18.736 131.667 20.536C131.667 22.336 132.909 23.56 134.439 23.56C135.969 23.56 137.211 22.336 137.211 20.536C137.211 18.736 135.969 17.512 134.439 17.512ZM142.813 16.072V19.492H146.809V16.072H148.573V25H146.809V21.076H142.813V25H141.049V16.072H142.813ZM160.068 20.536C160.068 23.65 157.656 25.252 155.298 25.252C152.94 25.252 150.528 23.65 150.528 20.536C150.528 17.458 152.94 15.82 155.298 15.82C157.656 15.82 160.068 17.458 160.068 20.536ZM155.298 23.56C156.864 23.56 158.196 22.354 158.196 20.536C158.196 18.718 156.864 17.512 155.298 17.512C153.732 17.512 152.4 18.718 152.4 20.536C152.4 22.354 153.732 23.56 155.298 23.56ZM163.801 16.072V22.534L167.833 16.072H169.777V25H168.013V18.538L163.981 25H162.037V16.072H163.801ZM166.591 12.868H167.851C167.851 13.966 167.113 14.812 165.907 14.812C164.701 14.812 163.963 13.966 163.963 12.868H165.223C165.223 13.354 165.475 13.642 165.907 13.642C166.339 13.642 166.591 13.354 166.591 12.868ZM177.476 25V12.4H182.984C185.72 12.4 187.52 13.894 187.52 16.414C187.52 18.934 185.72 20.428 182.984 20.428H179.42V25H177.476ZM179.42 14.128V18.7H182.912C184.658 18.7 185.576 17.836 185.576 16.414C185.576 14.992 184.658 14.128 182.912 14.128H179.42ZM197.844 20.536C197.844 23.65 195.432 25.252 193.074 25.252C190.716 25.252 188.304 23.65 188.304 20.536C188.304 17.458 190.716 15.82 193.074 15.82C195.432 15.82 197.844 17.458 197.844 20.536ZM193.074 23.56C194.64 23.56 195.972 22.354 195.972 20.536C195.972 18.718 194.64 17.512 193.074 17.512C191.508 17.512 190.176 18.718 190.176 20.536C190.176 22.354 191.508 23.56 193.074 23.56ZM206.563 21.76L207.985 22.678C207.139 24.352 205.753 25.252 203.881 25.252C201.289 25.252 199.255 23.344 199.255 20.536C199.255 17.728 201.379 15.82 203.881 15.82C205.843 15.82 207.283 16.738 207.913 18.25L206.455 19.222C205.807 17.908 204.907 17.512 203.899 17.512C202.369 17.512 201.127 18.646 201.127 20.536C201.127 22.426 202.315 23.56 203.899 23.56C205.249 23.56 205.969 22.894 206.563 21.76ZM216.494 21.76L217.916 22.678C217.07 24.352 215.684 25.252 213.812 25.252C211.22 25.252 209.186 23.344 209.186 20.536C209.186 17.728 211.31 15.82 213.812 15.82C215.774 15.82 217.214 16.738 217.844 18.25L216.386 19.222C215.738 17.908 214.838 17.512 213.83 17.512C212.3 17.512 211.058 18.646 211.058 20.536C211.058 22.426 212.246 23.56 213.83 23.56C215.18 23.56 215.9 22.894 216.494 21.76ZM221.317 16.072V22.534L225.349 16.072H227.293V25H225.529V18.538L221.497 25H219.553V16.072H221.317ZM231.495 16.072V22.534L235.527 16.072H237.471V25H235.707V18.538L231.675 25H229.731V16.072H231.495ZM251.721 21.76L253.143 22.678C252.297 24.352 250.911 25.252 249.039 25.252C246.447 25.252 244.413 23.344 244.413 20.536C244.413 17.728 246.537 15.82 249.039 15.82C251.001 15.82 252.441 16.738 253.071 18.25L251.613 19.222C250.965 17.908 250.065 17.512 249.057 17.512C247.527 17.512 246.285 18.646 246.285 20.536C246.285 22.426 247.473 23.56 249.057 23.56C250.407 23.56 251.127 22.894 251.721 21.76ZM259.676 23.614L264.518 18.898C265.67 17.746 266.12 16.99 266.12 15.928C266.12 14.632 265.238 13.84 263.87 13.84C262.574 13.84 261.602 14.632 261.602 16C261.602 16.288 261.656 16.558 261.746 16.81L259.946 17.134C259.784 16.72 259.73 16.27 259.73 15.82C259.73 13.93 261.368 12.148 263.888 12.148C266.498 12.148 267.992 13.66 267.992 15.676C267.992 17.242 267.47 18.43 265.796 20.068L262.592 23.236H268.028V25H259.676V23.614ZM280.785 18.7C280.785 22.642 278.463 25.252 275.205 25.252C271.947 25.252 269.625 22.642 269.625 18.7C269.625 14.758 271.947 12.148 275.205 12.148C278.463 12.148 280.785 14.758 280.785 18.7ZM275.205 23.488C277.311 23.488 278.841 21.706 278.841 18.7C278.841 15.694 277.311 13.912 275.205 13.912C273.099 13.912 271.569 15.694 271.569 18.7C271.569 21.706 273.099 23.488 275.205 23.488ZM282.018 15.712V13.984C283.494 13.984 284.25 13.462 284.772 12.4H286.572V25H284.628V14.866C283.926 15.568 283.152 15.712 282.018 15.712ZM293.036 25.252C290.444 25.252 288.68 23.758 288.68 21.508C288.68 19.978 289.508 18.844 290.786 18.25C289.706 17.674 289.058 16.648 289.058 15.406C289.058 13.462 290.786 12.148 293.036 12.148C295.286 12.148 297.014 13.462 297.014 15.406C297.014 16.648 296.366 17.674 295.286 18.25C296.564 18.844 297.392 19.978 297.392 21.508C297.392 23.758 295.628 25.252 293.036 25.252ZM293.036 23.668C294.44 23.668 295.52 22.714 295.52 21.382C295.52 20.05 294.404 19.096 293.036 19.096C291.668 19.096 290.552 20.05 290.552 21.382C290.552 22.714 291.632 23.668 293.036 23.668ZM290.894 15.568C290.894 16.792 291.884 17.548 293.036 17.548C294.188 17.548 295.178 16.792 295.178 15.568C295.178 14.344 294.134 13.588 293.036 13.588C291.938 13.588 290.894 14.344 290.894 15.568ZM299.101 20.14V18.664H305.833V20.14H299.101ZM307.559 23.614L312.401 18.898C313.553 17.746 314.003 16.99 314.003 15.928C314.003 14.632 313.121 13.84 311.753 13.84C310.457 13.84 309.485 14.632 309.485 16C309.485 16.288 309.539 16.558 309.629 16.81L307.829 17.134C307.667 16.72 307.613 16.27 307.613 15.82C307.613 13.93 309.251 12.148 311.771 12.148C314.381 12.148 315.875 13.66 315.875 15.676C315.875 17.242 315.353 18.43 313.679 20.068L310.475 23.236H315.911V25H307.559V23.614ZM328.667 18.7C328.667 22.642 326.345 25.252 323.087 25.252C319.829 25.252 317.507 22.642 317.507 18.7C317.507 14.758 319.829 12.148 323.087 12.148C326.345 12.148 328.667 14.758 328.667 18.7ZM323.087 23.488C325.193 23.488 326.723 21.706 326.723 18.7C326.723 15.694 325.193 13.912 323.087 13.912C320.981 13.912 319.451 15.694 319.451 18.7C319.451 21.706 320.981 23.488 323.087 23.488ZM330.112 23.614L334.954 18.898C336.106 17.746 336.556 16.99 336.556 15.928C336.556 14.632 335.674 13.84 334.306 13.84C333.01 13.84 332.038 14.632 332.038 16C332.038 16.288 332.092 16.558 332.182 16.81L330.382 17.134C330.22 16.72 330.166 16.27 330.166 15.82C330.166 13.93 331.804 12.148 334.324 12.148C336.934 12.148 338.428 13.66 338.428 15.676C338.428 17.242 337.906 18.43 336.232 20.068L333.028 23.236H338.464V25H330.112V23.614ZM340.641 15.712V13.984C342.117 13.984 342.873 13.462 343.395 12.4H345.195V25H343.251V14.866C342.549 15.568 341.775 15.712 340.641 15.712Z" fill="#0C0C0C"></path> </svg> 