<?xml version="1.0" encoding="UTF-8"?> <svg xmlns="http://www.w3.org/2000/svg" width="421" height="39" viewBox="0 0 421 39" fill="none"> <rect width="421" height="39" rx="19.5" fill="white"></rect> <circle cx="35" cy="19.5" r="5" fill="#FBDE40"></circle> <path d="M58.028 16.324C58.028 18.052 57.038 19.024 55.58 19.024C54.194 19.024 53.222 18.034 53.222 16.306V12.4H51.278V16.378C51.278 19.258 53.024 20.752 55.238 20.752C56.552 20.752 57.47 20.194 58.028 19.348V25H59.972V12.4H58.028V16.324ZM70.8972 20.932V20.284C70.8972 17.692 69.1512 15.82 66.5772 15.82C64.0392 15.82 61.9872 17.728 61.9872 20.536C61.9872 23.344 64.0392 25.252 66.4872 25.252C68.5212 25.252 69.7812 24.37 70.6272 22.642L69.2052 21.796C68.6832 22.858 67.9992 23.65 66.5412 23.65C64.9752 23.65 63.8772 22.516 63.8232 20.932H70.8972ZM66.5412 17.296C67.7652 17.296 69.0072 18.07 69.1512 19.528H63.8232C64.1472 18.25 65.1912 17.296 66.5412 17.296ZM78.4067 25L80.4767 19.348V25H82.2047V16.072H80.2247L77.5427 23.182L74.8787 16.072H72.8987V25H74.6267V19.348L76.6967 25H78.4067ZM92.1649 16.072H84.6409V25H86.4769V17.692H90.3289V25H92.1649V16.072ZM96.3541 16.072H94.5901V25H96.5341L100.566 18.538V25H102.33V16.072H100.386L96.3541 22.534V16.072ZM113.838 20.536C113.838 17.458 111.426 15.82 109.068 15.82C106.71 15.82 104.298 17.458 104.298 20.536C104.298 23.65 106.71 25.252 109.068 25.252C111.426 25.252 113.838 23.65 113.838 20.536ZM109.068 23.56C107.502 23.56 106.17 22.354 106.17 20.536C106.17 18.718 107.502 17.512 109.068 17.512C110.634 17.512 111.966 18.718 111.966 20.536C111.966 22.354 110.634 23.56 109.068 23.56ZM117.571 16.072H115.807V25H117.571V21.076H121.567V25H123.331V16.072H121.567V19.492H117.571V16.072ZM136.327 25L138.397 19.348V25H140.125V16.072H138.145L135.463 23.182L132.799 16.072H130.819V25H132.547V19.348L134.617 25H136.327ZM144.325 16.072H142.561V25H144.505L148.537 18.538V25H150.301V16.072H148.357L144.325 22.534V16.072ZM152.756 28.672H154.592V23.776C155.168 24.694 156.302 25.252 157.598 25.252C159.992 25.252 161.882 23.416 161.882 20.536C161.882 17.584 159.992 15.82 157.76 15.82C156.374 15.82 155.15 16.558 154.592 17.44V16.072H152.756V28.672ZM157.238 17.512C158.768 17.512 160.01 18.736 160.01 20.536C160.01 22.336 158.768 23.56 157.238 23.56C155.708 23.56 154.466 22.336 154.466 20.536C154.466 18.736 155.708 17.512 157.238 17.512ZM171.716 25C171.302 24.334 171.176 23.794 171.176 22.768V18.844C171.176 16.9 169.916 15.82 167.468 15.82C165.218 15.82 163.868 17.08 163.868 18.466C163.868 18.718 163.922 18.952 164.012 19.186L165.65 18.628C165.596 18.484 165.614 18.448 165.614 18.358C165.614 17.728 166.19 17.188 167.468 17.188C168.71 17.188 169.34 17.71 169.34 18.736V19.114L166.514 19.564C164.804 19.852 163.364 20.68 163.364 22.498C163.364 24.136 164.606 25.252 166.406 25.252C167.72 25.252 168.8 24.64 169.376 23.434C169.43 24.28 169.664 24.73 169.88 25H171.716ZM166.694 23.722C165.776 23.722 165.2 23.2 165.2 22.39C165.2 21.544 165.794 21.076 166.928 20.878L169.34 20.464V20.716C169.34 22.444 168.296 23.722 166.694 23.722ZM186.243 16.072H178.719V25H180.555V17.692H184.407V25H186.243V16.072ZM197.738 20.536C197.738 17.458 195.326 15.82 192.968 15.82C190.61 15.82 188.198 17.458 188.198 20.536C188.198 23.65 190.61 25.252 192.968 25.252C195.326 25.252 197.738 23.65 197.738 20.536ZM192.968 23.56C191.402 23.56 190.07 22.354 190.07 20.536C190.07 18.718 191.402 17.512 192.968 17.512C194.534 17.512 195.866 18.718 195.866 20.536C195.866 22.354 194.534 23.56 192.968 23.56ZM212.638 25C212.224 24.334 212.098 23.794 212.098 22.768V18.844C212.098 16.9 210.838 15.82 208.39 15.82C206.14 15.82 204.79 17.08 204.79 18.466C204.79 18.718 204.844 18.952 204.934 19.186L206.572 18.628C206.518 18.484 206.536 18.448 206.536 18.358C206.536 17.728 207.112 17.188 208.39 17.188C209.632 17.188 210.262 17.71 210.262 18.736V19.114L207.436 19.564C205.726 19.852 204.286 20.68 204.286 22.498C204.286 24.136 205.528 25.252 207.328 25.252C208.642 25.252 209.722 24.64 210.298 23.434C210.352 24.28 210.586 24.73 210.802 25H212.638ZM207.616 23.722C206.698 23.722 206.122 23.2 206.122 22.39C206.122 21.544 206.716 21.076 207.85 20.878L210.262 20.464V20.716C210.262 22.444 209.218 23.722 207.616 23.722ZM219.911 25L221.981 19.348V25H223.709V16.072H221.729L219.047 23.182L216.383 16.072H214.403V25H216.131V19.348L218.201 25H219.911ZM232.281 28.672H234.117V23.83C234.621 24.694 235.575 25.252 236.799 25.252C239.013 25.252 240.723 23.344 240.723 20.536C240.723 17.728 239.085 15.82 236.961 15.82C235.647 15.82 234.639 16.504 234.117 17.314V12.4H232.281V17.314C231.795 16.468 230.949 15.82 229.563 15.82C227.475 15.82 225.675 17.728 225.675 20.536C225.675 23.344 227.421 25.252 229.635 25.252C230.877 25.252 231.723 24.694 232.281 23.812V28.672ZM229.977 17.476C231.471 17.476 232.407 18.664 232.407 20.536C232.407 22.408 231.489 23.596 229.977 23.596C228.465 23.596 227.511 22.408 227.511 20.536C227.511 18.664 228.483 17.476 229.977 17.476ZM236.421 17.476C237.933 17.476 238.887 18.664 238.887 20.536C238.887 22.408 237.933 23.596 236.421 23.596C234.909 23.596 233.991 22.408 233.991 20.536C233.991 18.664 234.909 17.476 236.421 17.476ZM244.45 16.072H242.686V25H244.63L248.662 18.538V25H250.426V16.072H248.482L244.45 22.534V16.072ZM259.665 12.094C259.251 12.292 258.819 12.4 258.189 12.4C256.317 12.4 254.373 13.174 253.365 15.244C252.843 16.324 252.501 17.584 252.501 19.222C252.501 22.876 254.211 25.252 257.163 25.252C259.683 25.252 261.609 23.38 261.609 20.698C261.609 18.016 259.809 16.252 257.487 16.252C256.137 16.252 254.967 16.936 254.337 18.016C254.643 15.19 256.101 13.984 258.279 13.984C259.143 13.984 259.629 13.84 260.205 13.462L259.665 12.094ZM257.163 17.872C258.675 17.872 259.863 19.096 259.863 20.752C259.863 22.408 258.675 23.632 257.163 23.632C255.651 23.632 254.481 22.408 254.481 20.752C254.481 19.096 255.651 17.872 257.163 17.872ZM265.262 16.072H263.498V25H265.442L269.474 18.538V25H271.238V16.072H269.294L265.262 22.534V16.072ZM275.44 16.072H273.676V25H275.62L279.652 18.538V25H281.416V16.072H279.472L275.44 22.534V16.072ZM278.23 12.868C278.23 13.354 277.978 13.642 277.546 13.642C277.114 13.642 276.862 13.354 276.862 12.868H275.602C275.602 13.966 276.34 14.812 277.546 14.812C278.752 14.812 279.49 13.966 279.49 12.868H278.23ZM285.618 16.072H283.854V25H285.618V21.076H289.614V25H291.378V16.072H289.614V19.492H285.618V16.072ZM302.873 20.536C302.873 17.458 300.461 15.82 298.103 15.82C295.745 15.82 293.333 17.458 293.333 20.536C293.333 23.65 295.745 25.252 298.103 25.252C300.461 25.252 302.873 23.65 302.873 20.536ZM298.103 23.56C296.537 23.56 295.205 22.354 295.205 20.536C295.205 18.718 296.537 17.512 298.103 17.512C299.669 17.512 301.001 18.718 301.001 20.536C301.001 22.354 299.669 23.56 298.103 23.56ZM310.35 25L312.42 19.348V25H314.148V16.072H312.168L309.486 23.182L306.822 16.072H304.842V25H306.57V19.348L308.64 25H310.35ZM316.546 28.6C316.888 28.726 317.356 28.798 317.842 28.798C318.922 28.798 319.768 28.258 320.344 26.8L324.664 16.072H322.63L320.128 22.516L317.608 16.072H315.502L319.138 25.054L318.724 26.152C318.382 26.962 318.13 27.106 317.644 27.106C317.338 27.106 317.05 27.016 316.834 26.926L316.546 28.6ZM332.834 16.072H330.998V25H332.834V21.76L333.644 20.896L336.524 25H338.666L334.904 19.546L338.126 16.072H335.894L332.834 19.42V16.072ZM340.174 28.672H342.01V23.776C342.586 24.694 343.72 25.252 345.016 25.252C347.41 25.252 349.3 23.416 349.3 20.536C349.3 17.584 347.41 15.82 345.178 15.82C343.792 15.82 342.568 16.558 342.01 17.44V16.072H340.174V28.672ZM344.656 17.512C346.186 17.512 347.428 18.736 347.428 20.536C347.428 22.336 346.186 23.56 344.656 23.56C343.126 23.56 341.884 22.336 341.884 20.536C341.884 18.736 343.126 17.512 344.656 17.512ZM360.248 20.536C360.248 17.458 357.836 15.82 355.478 15.82C353.12 15.82 350.708 17.458 350.708 20.536C350.708 23.65 353.12 25.252 355.478 25.252C357.836 25.252 360.248 23.65 360.248 20.536ZM355.478 23.56C353.912 23.56 352.58 22.354 352.58 20.536C352.58 18.718 353.912 17.512 355.478 17.512C357.044 17.512 358.376 18.718 358.376 20.536C358.376 22.354 357.044 23.56 355.478 23.56ZM368.967 21.76C368.373 22.894 367.653 23.56 366.303 23.56C364.719 23.56 363.531 22.426 363.531 20.536C363.531 18.646 364.773 17.512 366.303 17.512C367.311 17.512 368.211 17.908 368.859 19.222L370.317 18.25C369.687 16.738 368.247 15.82 366.285 15.82C363.783 15.82 361.659 17.728 361.659 20.536C361.659 23.344 363.693 25.252 366.285 25.252C368.157 25.252 369.543 24.352 370.389 22.678L368.967 21.76ZM378.899 21.76C378.305 22.894 377.585 23.56 376.235 23.56C374.651 23.56 373.463 22.426 373.463 20.536C373.463 18.646 374.705 17.512 376.235 17.512C377.243 17.512 378.143 17.908 378.791 19.222L380.249 18.25C379.619 16.738 378.179 15.82 376.217 15.82C373.715 15.82 371.591 17.728 371.591 20.536C371.591 23.344 373.625 25.252 376.217 25.252C378.089 25.252 379.475 24.352 380.321 22.678L378.899 21.76ZM382.077 28.6C382.419 28.726 382.887 28.798 383.373 28.798C384.453 28.798 385.299 28.258 385.875 26.8L390.195 16.072H388.161L385.659 22.516L383.139 16.072H381.033L384.669 25.054L384.255 26.152C383.913 26.962 383.661 27.106 383.175 27.106C382.869 27.106 382.581 27.016 382.365 26.926L382.077 28.6Z" fill="#0C0C0C"></path> </svg> 