<?xml version="1.0" encoding="UTF-8"?> <svg xmlns="http://www.w3.org/2000/svg" width="588" height="39" viewBox="0 0 588 39" fill="none"> <rect width="588" height="39" rx="19.5" fill="white"></rect> <circle cx="35" cy="19.5" r="5" fill="#E01614"></circle> <path d="M51.458 25V12.4H60.782V25H58.838V14.164H53.402V25H51.458ZM72.3358 20.536C72.3358 23.65 69.9238 25.252 67.5658 25.252C65.2078 25.252 62.7958 23.65 62.7958 20.536C62.7958 17.458 65.2078 15.82 67.5658 15.82C69.9238 15.82 72.3358 17.458 72.3358 20.536ZM67.5658 23.56C69.1318 23.56 70.4638 22.354 70.4638 20.536C70.4638 18.718 69.1318 17.512 67.5658 17.512C65.9998 17.512 64.6678 18.718 64.6678 20.536C64.6678 22.354 65.9998 23.56 67.5658 23.56ZM81.0189 12.094L81.5589 13.462C80.9829 13.84 80.4969 13.984 79.6329 13.984C77.4549 13.984 75.9969 15.19 75.6909 18.016C76.3209 16.936 77.4909 16.252 78.8409 16.252C81.1629 16.252 82.9629 18.016 82.9629 20.698C82.9629 23.38 81.0369 25.252 78.5169 25.252C75.5649 25.252 73.8549 22.876 73.8549 19.222C73.8549 17.584 74.1969 16.324 74.7189 15.244C75.7269 13.174 77.6709 12.4 79.5429 12.4C80.1729 12.4 80.6049 12.292 81.0189 12.094ZM78.5169 17.872C77.0049 17.872 75.8349 19.096 75.8349 20.752C75.8349 22.408 77.0049 23.632 78.5169 23.632C80.0289 23.632 81.2169 22.408 81.2169 20.752C81.2169 19.096 80.0289 17.872 78.5169 17.872ZM93.3796 20.932H86.3056C86.3596 22.516 87.4576 23.65 89.0236 23.65C90.4816 23.65 91.1656 22.858 91.6876 21.796L93.1096 22.642C92.2636 24.37 91.0036 25.252 88.9696 25.252C86.5216 25.252 84.4696 23.344 84.4696 20.536C84.4696 17.728 86.5216 15.82 89.0596 15.82C91.6336 15.82 93.3796 17.692 93.3796 20.284V20.932ZM89.0236 17.296C87.6736 17.296 86.6296 18.25 86.3056 19.528H91.6336C91.4896 18.07 90.2476 17.296 89.0236 17.296ZM103.71 23.38V26.908H102.198V25H95.8438V26.908H94.3318V23.38H95.2678C95.6998 22.57 95.9518 21.76 96.0778 20.608L96.5098 16.072H102.792V23.38H103.71ZM98.1478 17.638L97.8598 20.77C97.7338 21.994 97.4818 22.678 97.1398 23.38H101.028V17.638H98.1478ZM107.604 16.072V22.534L111.636 16.072H113.58V25H111.816V18.538L107.784 25H105.84V16.072H107.604ZM115.245 17.656V16.072H122.265V17.656H119.673V25H117.837V17.656H115.245ZM131.876 20.932H124.802C124.856 22.516 125.954 23.65 127.52 23.65C128.978 23.65 129.662 22.858 130.184 21.796L131.606 22.642C130.76 24.37 129.5 25.252 127.466 25.252C125.018 25.252 122.966 23.344 122.966 20.536C122.966 17.728 125.018 15.82 127.556 15.82C130.13 15.82 131.876 17.692 131.876 20.284V20.932ZM127.52 17.296C126.17 17.296 125.126 18.25 124.802 19.528H130.13C129.986 18.07 128.744 17.296 127.52 17.296ZM141.351 16.072V25H139.515V17.692H136.365L135.843 22.966C135.699 24.478 134.979 25.126 133.881 25.126C133.485 25.126 133.125 25.09 132.783 25L133.053 23.38C133.215 23.434 133.359 23.47 133.521 23.47C133.899 23.47 134.025 23.2 134.079 22.768L134.745 16.072H141.351ZM143.791 16.072H145.555V19.636H147.877C149.821 19.636 150.991 20.662 150.991 22.3C150.991 24.01 149.749 25 147.877 25H143.791V16.072ZM145.555 21.076V23.524H147.805C148.741 23.524 149.227 23.074 149.227 22.3C149.227 21.526 148.741 21.076 147.805 21.076H145.555ZM164.815 16.324V12.4H166.759V25H164.815V19.348C164.257 20.194 163.339 20.752 162.025 20.752C159.811 20.752 158.065 19.258 158.065 16.378V12.4H160.009V16.306C160.009 18.034 160.981 19.024 162.367 19.024C163.825 19.024 164.815 18.052 164.815 16.324ZM177.684 20.932H170.61C170.664 22.516 171.762 23.65 173.328 23.65C174.786 23.65 175.47 22.858 175.992 21.796L177.414 22.642C176.568 24.37 175.308 25.252 173.274 25.252C170.826 25.252 168.774 23.344 168.774 20.536C168.774 17.728 170.826 15.82 173.364 15.82C175.938 15.82 177.684 17.692 177.684 20.284V20.932ZM173.328 17.296C171.978 17.296 170.934 18.25 170.61 19.528H175.938C175.794 18.07 174.552 17.296 173.328 17.296ZM185.194 25H183.484L181.414 19.348V25H179.686V16.072H181.666L184.33 23.182L187.012 16.072H188.992V25H187.264V19.348L185.194 25ZM198.952 16.072V25H197.116V17.692H193.264V25H191.428V16.072H198.952ZM203.141 16.072V22.534L207.173 16.072H209.117V25H207.353V18.538L203.321 25H201.377V16.072H203.141ZM220.625 20.536C220.625 23.65 218.213 25.252 215.855 25.252C213.497 25.252 211.085 23.65 211.085 20.536C211.085 17.458 213.497 15.82 215.855 15.82C218.213 15.82 220.625 17.458 220.625 20.536ZM215.855 23.56C217.421 23.56 218.753 22.354 218.753 20.536C218.753 18.718 217.421 17.512 215.855 17.512C214.289 17.512 212.957 18.718 212.957 20.536C212.957 22.354 214.289 23.56 215.855 23.56ZM224.358 16.072V19.492H228.354V16.072H230.118V25H228.354V21.076H224.358V25H222.594V16.072H224.358ZM240.376 25H238.54C238.324 24.73 238.09 24.28 238.036 23.434C237.46 24.64 236.38 25.252 235.066 25.252C233.266 25.252 232.024 24.136 232.024 22.498C232.024 20.68 233.464 19.852 235.174 19.564L238 19.114V18.736C238 17.71 237.37 17.188 236.128 17.188C234.85 17.188 234.274 17.728 234.274 18.358C234.274 18.448 234.256 18.484 234.31 18.628L232.672 19.186C232.582 18.952 232.528 18.718 232.528 18.466C232.528 17.08 233.878 15.82 236.128 15.82C238.576 15.82 239.836 16.9 239.836 18.844V22.768C239.836 23.794 239.962 24.334 240.376 25ZM235.354 23.722C236.956 23.722 238 22.444 238 20.716V20.464L235.588 20.878C234.454 21.076 233.86 21.544 233.86 22.39C233.86 23.2 234.436 23.722 235.354 23.722ZM241.104 17.656V16.072H248.124V17.656H245.532V25H243.696V17.656H241.104ZM258.365 20.536C258.365 23.65 255.953 25.252 253.595 25.252C251.237 25.252 248.825 23.65 248.825 20.536C248.825 17.458 251.237 15.82 253.595 15.82C255.953 15.82 258.365 17.458 258.365 20.536ZM253.595 23.56C255.161 23.56 256.493 22.354 256.493 20.536C256.493 18.718 255.161 17.512 253.595 17.512C252.029 17.512 250.697 18.718 250.697 20.536C250.697 22.354 252.029 23.56 253.595 23.56ZM260.334 25V16.072H264.312C266.202 16.072 267.246 17.098 267.246 18.34C267.246 19.348 266.67 19.942 265.86 20.284C266.85 20.644 267.57 21.202 267.57 22.426C267.57 23.938 266.328 25 264.42 25H260.334ZM262.134 17.512V19.636H264.222C265.104 19.636 265.536 19.276 265.536 18.574C265.536 17.872 265.104 17.512 264.222 17.512H262.134ZM262.134 21.076V23.524H264.348C265.284 23.524 265.77 23.074 265.77 22.3C265.77 21.526 265.284 21.076 264.348 21.076H262.134ZM268.726 25V22.912H270.778V25L269.23 27.592L268.762 27.394L269.428 25H268.726ZM278.005 25V12.4H287.329V25H285.385V14.164H279.949V25H278.005ZM298.253 20.932H291.179C291.233 22.516 292.331 23.65 293.897 23.65C295.355 23.65 296.039 22.858 296.561 21.796L297.983 22.642C297.137 24.37 295.877 25.252 293.843 25.252C291.395 25.252 289.343 23.344 289.343 20.536C289.343 17.728 291.395 15.82 293.933 15.82C296.507 15.82 298.253 17.692 298.253 20.284V20.932ZM293.897 17.296C292.547 17.296 291.503 18.25 291.179 19.528H296.507C296.363 18.07 295.121 17.296 293.897 17.296ZM300.184 28.672V16.072H302.02V17.44C302.578 16.558 303.802 15.82 305.188 15.82C307.42 15.82 309.31 17.584 309.31 20.536C309.31 23.416 307.42 25.252 305.026 25.252C303.73 25.252 302.596 24.694 302.02 23.776V28.672H300.184ZM304.666 17.512C303.136 17.512 301.894 18.736 301.894 20.536C301.894 22.336 303.136 23.56 304.666 23.56C306.196 23.56 307.438 22.336 307.438 20.536C307.438 18.736 306.196 17.512 304.666 17.512ZM311.276 25V16.072H315.254C317.144 16.072 318.188 17.098 318.188 18.34C318.188 19.348 317.612 19.942 316.802 20.284C317.792 20.644 318.512 21.202 318.512 22.426C318.512 23.938 317.27 25 315.362 25H311.276ZM313.076 17.512V19.636H315.164C316.046 19.636 316.478 19.276 316.478 18.574C316.478 17.872 316.046 17.512 315.164 17.512H313.076ZM313.076 21.076V23.524H315.29C316.226 23.524 316.712 23.074 316.712 22.3C316.712 21.526 316.226 21.076 315.29 21.076H313.076ZM328.821 20.932H321.747C321.801 22.516 322.899 23.65 324.465 23.65C325.923 23.65 326.607 22.858 327.129 21.796L328.551 22.642C327.705 24.37 326.445 25.252 324.411 25.252C321.963 25.252 319.911 23.344 319.911 20.536C319.911 17.728 321.963 15.82 324.501 15.82C327.075 15.82 328.821 17.692 328.821 20.284V20.932ZM324.465 17.296C323.115 17.296 322.071 18.25 321.747 19.528H327.075C326.931 18.07 325.689 17.296 324.465 17.296ZM332.587 16.072V19.492H336.583V16.072H338.347V25H336.583V21.076H332.587V25H330.823V16.072H332.587ZM347.61 21.76L349.032 22.678C348.186 24.352 346.8 25.252 344.928 25.252C342.336 25.252 340.302 23.344 340.302 20.536C340.302 17.728 342.426 15.82 344.928 15.82C346.89 15.82 348.33 16.738 348.96 18.25L347.502 19.222C346.854 17.908 345.954 17.512 344.946 17.512C343.416 17.512 342.174 18.646 342.174 20.536C342.174 22.426 343.362 23.56 344.946 23.56C346.296 23.56 347.016 22.894 347.61 21.76ZM349.878 17.656V16.072H356.898V17.656H354.306V25H352.47V17.656H349.878ZM358.701 25V16.072H362.679C364.569 16.072 365.613 17.098 365.613 18.34C365.613 19.348 365.037 19.942 364.227 20.284C365.217 20.644 365.937 21.202 365.937 22.426C365.937 23.938 364.695 25 362.787 25H358.701ZM360.501 17.512V19.636H362.589C363.471 19.636 363.903 19.276 363.903 18.574C363.903 17.872 363.471 17.512 362.589 17.512H360.501ZM360.501 21.076V23.524H362.715C363.651 23.524 364.137 23.074 364.137 22.3C364.137 21.526 363.651 21.076 362.715 21.076H360.501ZM373.296 25V12.4H375.366L379.632 23.074L383.898 12.4H385.968V25H384.096V16.27L383.736 17.278L383.448 18.052L380.568 25H378.696L375.816 18.052L375.528 17.278L375.168 16.27V25H373.296ZM397.531 20.536C397.531 23.65 395.119 25.252 392.761 25.252C390.403 25.252 387.991 23.65 387.991 20.536C387.991 17.458 390.403 15.82 392.761 15.82C395.119 15.82 397.531 17.458 397.531 20.536ZM392.761 23.56C394.327 23.56 395.659 22.354 395.659 20.536C395.659 18.718 394.327 17.512 392.761 17.512C391.195 17.512 389.863 18.718 389.863 20.536C389.863 22.354 391.195 23.56 392.761 23.56ZM406.25 21.76L407.672 22.678C406.826 24.352 405.44 25.252 403.568 25.252C400.976 25.252 398.942 23.344 398.942 20.536C398.942 17.728 401.066 15.82 403.568 15.82C405.53 15.82 406.97 16.738 407.6 18.25L406.142 19.222C405.494 17.908 404.594 17.512 403.586 17.512C402.056 17.512 400.814 18.646 400.814 20.536C400.814 22.426 402.002 23.56 403.586 23.56C404.936 23.56 405.656 22.894 406.25 21.76ZM411.145 16.072V19.42L414.205 16.072H416.437L413.215 19.546L416.977 25H414.835L411.955 20.896L411.145 21.76V25H409.309V16.072H411.145ZM418.203 25V16.072H422.181C424.071 16.072 425.115 17.098 425.115 18.34C425.115 19.348 424.539 19.942 423.729 20.284C424.719 20.644 425.439 21.202 425.439 22.426C425.439 23.938 424.197 25 422.289 25H418.203ZM420.003 17.512V19.636H422.091C422.973 19.636 423.405 19.276 423.405 18.574C423.405 17.872 422.973 17.512 422.091 17.512H420.003ZM420.003 21.076V23.524H422.217C423.153 23.524 423.639 23.074 423.639 22.3C423.639 21.526 423.153 21.076 422.217 21.076H420.003ZM436.073 25V16.072H437.909V25H436.073ZM427.397 16.072H429.161V19.636H431.483C433.427 19.636 434.597 20.662 434.597 22.3C434.597 24.01 433.355 25 431.483 25H427.397V16.072ZM429.161 21.076V23.524H431.411C432.347 23.524 432.833 23.074 432.833 22.3C432.833 21.526 432.347 21.076 431.411 21.076H429.161ZM452.921 16.072V25H451.085V17.692H447.233V25H445.397V16.072H452.921ZM464.416 20.536C464.416 23.65 462.004 25.252 459.646 25.252C457.288 25.252 454.876 23.65 454.876 20.536C454.876 17.458 457.288 15.82 459.646 15.82C462.004 15.82 464.416 17.458 464.416 20.536ZM459.646 23.56C461.212 23.56 462.544 22.354 462.544 20.536C462.544 18.718 461.212 17.512 459.646 17.512C458.08 17.512 456.748 18.718 456.748 20.536C456.748 22.354 458.08 23.56 459.646 23.56ZM470.64 17.656V16.072H477.66V17.656H475.068V25H473.232V17.656H470.64ZM479.463 28.672V16.072H481.299V17.44C481.857 16.558 483.081 15.82 484.467 15.82C486.699 15.82 488.589 17.584 488.589 20.536C488.589 23.416 486.699 25.252 484.305 25.252C483.009 25.252 481.875 24.694 481.299 23.776V28.672H479.463ZM483.945 17.512C482.415 17.512 481.173 18.736 481.173 20.536C481.173 22.336 482.415 23.56 483.945 23.56C485.475 23.56 486.717 22.336 486.717 20.536C486.717 18.736 485.475 17.512 483.945 17.512ZM492.319 16.072V22.534L496.351 16.072H498.295V25H496.531V18.538L492.499 25H490.555V16.072H492.319ZM508.566 25H506.73C506.514 24.73 506.28 24.28 506.226 23.434C505.65 24.64 504.57 25.252 503.256 25.252C501.456 25.252 500.214 24.136 500.214 22.498C500.214 20.68 501.654 19.852 503.364 19.564L506.19 19.114V18.736C506.19 17.71 505.56 17.188 504.318 17.188C503.04 17.188 502.464 17.728 502.464 18.358C502.464 18.448 502.446 18.484 502.5 18.628L500.862 19.186C500.772 18.952 500.718 18.718 500.718 18.466C500.718 17.08 502.068 15.82 504.318 15.82C506.766 15.82 508.026 16.9 508.026 18.844V22.768C508.026 23.794 508.152 24.334 508.566 25ZM503.544 23.722C505.146 23.722 506.19 22.444 506.19 20.716V20.464L503.778 20.878C502.644 21.076 502.05 21.544 502.05 22.39C502.05 23.2 502.626 23.722 503.544 23.722ZM509.294 17.656V16.072H516.314V17.656H513.722V25H511.886V17.656H509.294ZM525.539 16.072V25H523.703V17.692H520.553L520.031 22.966C519.887 24.478 519.167 25.126 518.069 25.126C517.673 25.126 517.313 25.09 516.971 25L517.241 23.38C517.403 23.434 517.547 23.47 517.709 23.47C518.087 23.47 518.213 23.2 518.267 22.768L518.933 16.072H525.539ZM537.049 20.536C537.049 23.65 534.637 25.252 532.279 25.252C529.921 25.252 527.509 23.65 527.509 20.536C527.509 17.458 529.921 15.82 532.279 15.82C534.637 15.82 537.049 17.458 537.049 20.536ZM532.279 23.56C533.845 23.56 535.177 22.354 535.177 20.536C535.177 18.718 533.845 17.512 532.279 17.512C530.713 17.512 529.381 18.718 529.381 20.536C529.381 22.354 530.713 23.56 532.279 23.56ZM540.782 16.072V19.492H544.778V16.072H546.542V25H544.778V21.076H540.782V25H539.018V16.072H540.782ZM548.929 28.6L549.217 26.926C549.433 27.016 549.721 27.106 550.027 27.106C550.513 27.106 550.765 26.962 551.107 26.152L551.521 25.054L547.885 16.072H549.991L552.511 22.516L555.013 16.072H557.047L552.727 26.8C552.151 28.258 551.305 28.798 550.225 28.798C549.739 28.798 549.271 28.726 548.929 28.6Z" fill="#0C0C0C"></path> </svg> 