<?xml version="1.0" encoding="UTF-8"?> <svg xmlns="http://www.w3.org/2000/svg" width="389" height="39" viewBox="0 0 389 39" fill="none"> <rect width="389" height="39" rx="19.5" fill="white"></rect> <circle cx="35" cy="19.5" r="5" fill="#E01614"></circle> <path d="M50.936 23.614L55.778 18.898C56.93 17.746 57.38 16.99 57.38 15.928C57.38 14.632 56.498 13.84 55.13 13.84C53.834 13.84 52.862 14.632 52.862 16C52.862 16.288 52.916 16.558 53.006 16.81L51.206 17.134C51.044 16.72 50.99 16.27 50.99 15.82C50.99 13.93 52.628 12.148 55.148 12.148C57.758 12.148 59.252 13.66 59.252 15.676C59.252 17.242 58.73 18.43 57.056 20.068L53.852 23.236H59.288V25H50.936V23.614ZM72.2895 25H70.5795L68.5095 19.348V25H66.7815V16.072H68.7615L71.4255 23.182L74.1075 16.072H76.0875V25H74.3595V19.348L72.2895 25ZM86.9636 20.932H79.8896C79.9436 22.516 81.0416 23.65 82.6076 23.65C84.0656 23.65 84.7496 22.858 85.2716 21.796L86.6936 22.642C85.8476 24.37 84.5876 25.252 82.5536 25.252C80.1056 25.252 78.0536 23.344 78.0536 20.536C78.0536 17.728 80.1056 15.82 82.6436 15.82C85.2176 15.82 86.9636 17.692 86.9636 20.284V20.932ZM82.6076 17.296C81.2576 17.296 80.2136 18.25 79.8896 19.528H85.2176C85.0736 18.07 83.8316 17.296 82.6076 17.296ZM95.803 21.76L97.225 22.678C96.379 24.352 94.993 25.252 93.121 25.252C90.529 25.252 88.495 23.344 88.495 20.536C88.495 17.728 90.619 15.82 93.121 15.82C95.083 15.82 96.523 16.738 97.153 18.25L95.695 19.222C95.047 17.908 94.147 17.512 93.139 17.512C91.609 17.512 90.367 18.646 90.367 20.536C90.367 22.426 91.555 23.56 93.139 23.56C94.489 23.56 95.209 22.894 95.803 21.76ZM98.0713 17.656V16.072H105.091V17.656H102.499V25H100.663V17.656H98.0713ZM115.332 20.536C115.332 23.65 112.92 25.252 110.562 25.252C108.204 25.252 105.792 23.65 105.792 20.536C105.792 17.458 108.204 15.82 110.562 15.82C112.92 15.82 115.332 17.458 115.332 20.536ZM110.562 23.56C112.128 23.56 113.46 22.354 113.46 20.536C113.46 18.718 112.128 17.512 110.562 17.512C108.996 17.512 107.664 18.718 107.664 20.536C107.664 22.354 108.996 23.56 110.562 23.56ZM124.31 15.478C124.31 16.63 125.372 17.26 127.604 17.692C130.34 18.214 131.672 19.348 131.672 21.454C131.672 23.488 129.89 25.252 127.064 25.252C124.022 25.252 122.33 23.524 121.898 21.274L123.608 20.392C123.968 22.48 125.12 23.56 127.046 23.56C128.72 23.56 129.728 22.624 129.728 21.526C129.728 20.212 128.702 19.636 126.524 19.222C124.184 18.79 122.474 17.62 122.474 15.514C122.474 13.516 124.256 12.148 126.794 12.148C129.08 12.148 130.754 13.264 131.456 15.28L129.908 16.18C129.404 14.668 128.36 13.84 126.776 13.84C125.426 13.84 124.31 14.398 124.31 15.478ZM139.677 16.072L141.477 22.624L143.097 16.072H144.933L142.431 25H140.559L138.759 18.376L136.959 25H135.087L132.585 16.072H134.421L136.041 22.624L137.841 16.072H139.677ZM146.305 25V16.072H148.141V25H146.305ZM146.179 14.65V12.58H148.267V14.65H146.179ZM163.157 18.466V25H161.321V19.096C161.321 18.07 160.853 17.44 159.773 17.44C158.693 17.44 157.811 18.214 157.811 20.086V25H155.975V19.15C155.975 18.142 155.489 17.44 154.499 17.44C153.419 17.44 152.483 18.304 152.483 20.086V25H150.647V16.072H152.483V17.35C153.041 16.414 154.031 15.82 155.111 15.82C156.335 15.82 157.181 16.342 157.559 17.404C158.189 16.324 159.179 15.82 160.403 15.82C162.113 15.82 163.157 16.882 163.157 18.466ZM173.236 25L170.302 19.69H167.818V25H165.874V12.4H171.076C173.722 12.4 175.342 13.894 175.342 15.964C175.342 17.764 174.208 19.042 172.354 19.528L175.486 25H173.236ZM167.818 14.092V17.998H170.95C172.588 17.998 173.398 17.35 173.398 16.054C173.398 14.74 172.588 14.092 170.95 14.092H167.818ZM177.295 21.814V16.072H179.131V21.436C179.131 22.822 179.833 23.56 181.111 23.56C182.425 23.56 183.451 22.444 183.451 20.896V16.072H185.287V25H183.451V23.56C182.875 24.64 181.849 25.252 180.553 25.252C178.807 25.252 177.295 24.172 177.295 21.814ZM195.711 18.934V25H193.875V19.474C193.875 18.25 193.173 17.512 191.895 17.512C190.617 17.512 189.555 18.61 189.555 20.284V25H187.719V16.072H189.555V17.566C190.185 16.504 191.301 15.82 192.597 15.82C194.343 15.82 195.711 16.918 195.711 18.934ZM210.765 25L207.831 19.69H205.347V25H203.403V12.4H208.605C211.251 12.4 212.871 13.894 212.871 15.964C212.871 17.764 211.737 19.042 209.883 19.528L213.015 25H210.765ZM205.347 14.092V17.998H208.479C210.117 17.998 210.927 17.35 210.927 16.054C210.927 14.74 210.117 14.092 208.479 14.092H205.347ZM214.824 21.814V16.072H216.66V21.436C216.66 22.822 217.362 23.56 218.64 23.56C219.954 23.56 220.98 22.444 220.98 20.896V16.072H222.816V25H220.98V23.56C220.404 24.64 219.378 25.252 218.082 25.252C216.336 25.252 214.824 24.172 214.824 21.814ZM226.884 23.452H232.194V25H224.796V23.452L229.818 17.62H225.012V16.072H231.906V17.62L226.884 23.452ZM242.081 25H240.245C240.029 24.73 239.795 24.28 239.741 23.434C239.165 24.64 238.085 25.252 236.771 25.252C234.971 25.252 233.729 24.136 233.729 22.498C233.729 20.68 235.169 19.852 236.879 19.564L239.705 19.114V18.736C239.705 17.71 239.075 17.188 237.833 17.188C236.555 17.188 235.979 17.728 235.979 18.358C235.979 18.448 235.961 18.484 236.015 18.628L234.377 19.186C234.287 18.952 234.233 18.718 234.233 18.466C234.233 17.08 235.583 15.82 237.833 15.82C240.281 15.82 241.541 16.9 241.541 18.844V22.768C241.541 23.794 241.667 24.334 242.081 25ZM237.059 23.722C238.661 23.722 239.705 22.444 239.705 20.716V20.464L237.293 20.878C236.159 21.076 235.565 21.544 235.565 22.39C235.565 23.2 236.141 23.722 237.059 23.722ZM249.282 25V12.4H251.226V23.272H257.544V25H249.282ZM267.333 20.932H260.259C260.313 22.516 261.411 23.65 262.977 23.65C264.435 23.65 265.119 22.858 265.641 21.796L267.063 22.642C266.217 24.37 264.957 25.252 262.923 25.252C260.475 25.252 258.423 23.344 258.423 20.536C258.423 17.728 260.475 15.82 263.013 15.82C265.587 15.82 267.333 17.692 267.333 20.284V20.932ZM262.977 17.296C261.627 17.296 260.583 18.25 260.259 19.528H265.587C265.443 18.07 264.201 17.296 262.977 17.296ZM269.406 25.108L271.188 25.612C271.098 25.81 271.044 26.026 271.044 26.26C271.044 26.926 271.908 27.412 273.276 27.412C274.95 27.412 275.796 26.512 275.796 24.712V23.308C275.346 24.19 274.374 24.856 273.078 24.856C270.72 24.856 268.776 23.056 268.776 20.338C268.776 17.584 270.738 15.82 273.024 15.82C274.266 15.82 275.292 16.45 275.796 17.296V16.072H277.632V24.46C277.632 27.34 275.994 28.924 273.276 28.924C270.666 28.924 269.172 27.826 269.172 26.116C269.172 25.738 269.244 25.396 269.406 25.108ZM273.258 17.458C271.782 17.458 270.612 18.502 270.612 20.338C270.612 22.174 271.782 23.218 273.258 23.218C274.734 23.218 275.904 22.174 275.904 20.338C275.904 18.502 274.734 17.458 273.258 17.458ZM288.356 20.932H281.282C281.336 22.516 282.434 23.65 284 23.65C285.458 23.65 286.142 22.858 286.664 21.796L288.086 22.642C287.24 24.37 285.98 25.252 283.946 25.252C281.498 25.252 279.446 23.344 279.446 20.536C279.446 17.728 281.498 15.82 284.036 15.82C286.61 15.82 288.356 17.692 288.356 20.284V20.932ZM284 17.296C282.65 17.296 281.606 18.25 281.282 19.528H286.61C286.466 18.07 285.224 17.296 284 17.296ZM298.35 18.934V25H296.514V19.474C296.514 18.25 295.812 17.512 294.534 17.512C293.256 17.512 292.194 18.61 292.194 20.284V25H290.358V16.072H292.194V17.566C292.824 16.504 293.94 15.82 295.236 15.82C296.982 15.82 298.35 16.918 298.35 18.934ZM309.349 12.4V25H307.513V23.56C306.937 24.568 305.929 25.252 304.561 25.252C302.113 25.252 300.223 23.398 300.223 20.536C300.223 17.674 302.311 15.82 304.525 15.82C305.947 15.82 306.991 16.414 307.513 17.422V12.4H309.349ZM304.867 23.56C306.397 23.56 307.639 22.336 307.639 20.536C307.639 18.736 306.397 17.512 304.867 17.512C303.337 17.512 302.095 18.736 302.095 20.536C302.095 22.336 303.337 23.56 304.867 23.56ZM316.524 23.614L321.366 18.898C322.518 17.746 322.968 16.99 322.968 15.928C322.968 14.632 322.086 13.84 320.718 13.84C319.422 13.84 318.45 14.632 318.45 16C318.45 16.288 318.504 16.558 318.594 16.81L316.794 17.134C316.632 16.72 316.578 16.27 316.578 15.82C316.578 13.93 318.216 12.148 320.736 12.148C323.346 12.148 324.84 13.66 324.84 15.676C324.84 17.242 324.318 18.43 322.644 20.068L319.44 23.236H324.876V25H316.524V23.614ZM337.632 18.7C337.632 22.642 335.31 25.252 332.052 25.252C328.794 25.252 326.472 22.642 326.472 18.7C326.472 14.758 328.794 12.148 332.052 12.148C335.31 12.148 337.632 14.758 337.632 18.7ZM332.052 23.488C334.158 23.488 335.688 21.706 335.688 18.7C335.688 15.694 334.158 13.912 332.052 13.912C329.946 13.912 328.416 15.694 328.416 18.7C328.416 21.706 329.946 23.488 332.052 23.488ZM339.077 23.614L343.919 18.898C345.071 17.746 345.521 16.99 345.521 15.928C345.521 14.632 344.639 13.84 343.271 13.84C341.975 13.84 341.003 14.632 341.003 16C341.003 16.288 341.057 16.558 341.147 16.81L339.347 17.134C339.185 16.72 339.131 16.27 339.131 15.82C339.131 13.93 340.769 12.148 343.289 12.148C345.899 12.148 347.393 13.66 347.393 15.676C347.393 17.242 346.871 18.43 345.197 20.068L341.993 23.236H347.429V25H339.077V23.614ZM349.243 20.446L351.061 20.878C351.007 21.04 350.989 21.184 350.989 21.454C350.989 22.66 352.069 23.56 353.455 23.56C354.967 23.56 355.939 22.768 355.939 21.274C355.939 19.618 354.463 18.988 352.555 18.988V17.512C354.571 17.512 355.399 16.594 355.399 15.46C355.399 14.398 354.553 13.768 353.329 13.768C352.213 13.768 351.277 14.452 351.277 15.55C351.277 15.748 351.313 15.91 351.367 16.072L349.603 16.414C349.495 16.108 349.441 15.802 349.441 15.496C349.441 13.696 350.971 12.148 353.347 12.148C355.903 12.148 357.271 13.48 357.271 15.226C357.271 16.468 356.533 17.638 355.327 18.07C356.749 18.502 357.883 19.51 357.883 21.238C357.883 23.722 355.957 25.252 353.455 25.252C350.629 25.252 349.045 23.434 349.045 21.508C349.045 21.166 349.117 20.734 349.243 20.446Z" fill="#0C0C0C"></path> </svg> 