<?xml version="1.0" encoding="UTF-8"?> <svg xmlns="http://www.w3.org/2000/svg" width="381" height="304" viewBox="0 0 381 304" fill="none"> <g clip-path="url(#clip0_2_166)"> <path fill-rule="evenodd" clip-rule="evenodd" d="M154.728 229.35V158.544H76.2258L41.5924 229.35H6.95898L49.2887 150.848C36.4615 143.665 13.116 123.141 13.116 78.5024C13.116 27.7067 47.7495 -3.8147e-06 76.2258 -3.8147e-06H185.514V229.35H154.728ZM154.728 36.1727V123.141H74.6866C63.1421 123.141 43.2857 110.211 43.9014 80.0417C44.671 42.3297 68.5296 36.1727 74.6866 36.1727H154.728Z" fill="#0C0C0C"></path> <path d="M76.2267 -3.8147e-06V36.1727C60.834 36.1727 43.9022 50.7957 43.9022 79.272C43.9022 107.748 60.8333 123.141 76.2267 123.141V158.544C52.3673 158.544 12.3473 136.225 13.1169 79.272C13.9323 18.9353 54.677 -3.8147e-06 76.2267 -3.8147e-06Z" fill="#E0501E"></path> <path d="M76.2259 24.6282C57.1684 24.6282 36.2051 43.004 36.2051 78.7885C36.2051 114.573 57.1674 133.916 76.2259 133.916" stroke="white" stroke-width="1.53926"></path> <path d="M76.2259 13.8534C52.7705 13.8534 26.9695 35.8526 26.9695 78.6931C26.9695 121.534 52.7693 144.691 76.2259 144.691" stroke="white" stroke-width="1.53926"></path> <path d="M76.2259 4.61778C49.1056 4.61778 19.2732 29.7228 19.2732 78.6114C19.2732 127.5 49.1042 153.926 76.2259 153.926" stroke="white" stroke-width="1.53926"></path> <path d="M200.906 229.35V-3.8147e-06H236.309V192.408H378.691V229.35H200.906Z" fill="#E01614"></path> <rect x="273.252" y="192.408" width="106.209" height="36.9423" fill="#FAFAFA"></rect> <path fill-rule="evenodd" clip-rule="evenodd" d="M371.001 209.17C368.645 207.831 365.733 207.942 363.485 209.457L355.888 214.577C350.21 218.404 342.812 218.526 337.011 214.889L331.502 211.435C327.159 208.711 321.646 208.69 317.282 211.379L312.025 214.619C305.881 218.405 298.032 217.983 292.329 213.56L287.862 210.096C285.42 208.203 282.103 207.894 279.354 209.303C277.687 210.158 275.84 210.604 273.967 210.604H273.252V206.756H273.967C275.23 206.756 276.474 206.455 277.598 205.879C281.677 203.788 286.598 204.246 290.22 207.055L294.687 210.519C299.123 213.959 305.227 214.287 310.006 211.342L315.263 208.103C320.875 204.645 327.962 204.673 333.546 208.174L339.055 211.628C343.567 214.457 349.321 214.362 353.737 211.386L361.335 206.266C364.794 203.934 369.275 203.763 372.902 205.824C373.977 206.435 375.193 206.756 376.429 206.756H379.461V210.604H376.429C374.526 210.604 372.656 210.11 371.001 209.17Z" fill="#145AAF"></path> <path fill-rule="evenodd" clip-rule="evenodd" d="M370.946 198.671C368.667 197.232 365.736 197.349 363.578 198.964L356.567 204.214C350.59 208.691 342.416 208.831 336.289 204.562L332.041 201.603C327.447 198.402 321.353 198.378 316.733 201.541L312.795 204.237C306.314 208.674 297.658 208.194 291.708 203.067L287.709 199.621C285.392 197.625 282.069 197.302 279.412 198.817C277.741 199.769 275.851 200.269 273.928 200.269H273.252V196.421H273.928C275.183 196.421 276.416 196.094 277.507 195.473C281.579 193.153 286.67 193.647 290.221 196.706L294.22 200.152C298.848 204.139 305.58 204.513 310.621 201.062L314.559 198.365C320.499 194.299 328.335 194.331 334.241 198.445L338.488 201.404C343.254 204.725 349.611 204.616 354.261 201.134L361.271 195.884C364.706 193.312 369.372 193.126 373 195.417C374.039 196.073 375.243 196.421 376.471 196.421H379.461V200.269H376.471C374.516 200.269 372.6 199.715 370.946 198.671Z" fill="#145AAF"></path> <path fill-rule="evenodd" clip-rule="evenodd" d="M370.946 218.681C368.667 217.242 365.736 217.359 363.578 218.975L356.567 224.225C350.59 228.701 342.416 228.841 336.289 224.572L332.041 221.613C327.447 218.413 321.353 218.388 316.733 221.551L312.795 224.248C306.314 228.685 297.658 228.204 291.708 223.078L287.709 219.631C285.392 217.635 282.069 217.313 279.412 218.827C277.741 219.779 275.851 220.28 273.928 220.28H273.252V216.431H273.928C275.183 216.431 276.416 216.105 277.507 215.483C281.579 213.163 286.67 213.657 290.221 216.716L294.22 220.162C298.848 224.15 305.58 224.523 310.621 221.072L314.559 218.376C320.499 214.309 328.335 214.341 334.241 218.456L338.488 221.415C343.254 224.735 349.611 224.626 354.261 221.145L361.271 215.895C364.706 213.322 369.372 213.137 373 215.427C374.039 216.083 375.243 216.431 376.471 216.431H379.461V220.28H376.471C374.516 220.28 372.6 219.725 370.946 218.681Z" fill="#145AAF"></path> <path d="M38.5152 301.35H48.1359L34.7439 277.953C42.6713 275.875 47.5202 270.41 47.5202 262.713C47.5202 253.862 40.5932 247.474 29.2793 247.474H7.03622V301.35H15.3485V278.645H25.9698L38.5152 301.35ZM15.3485 254.709H28.7405C35.7444 254.709 39.2079 257.48 39.2079 263.098C39.2079 268.64 35.7444 271.411 28.7405 271.411H15.3485V254.709ZM56.7181 301.35H92.3532V293.961H65.0304V277.183H89.9673V269.794H65.0304V254.863H92.1223V247.474H56.7181V301.35ZM108.613 260.635C108.613 256.017 113.385 253.631 119.158 253.631C125.931 253.631 130.395 257.172 132.55 263.637L139.169 259.789C136.167 251.169 129.009 246.397 119.235 246.397C108.383 246.397 100.763 252.246 100.763 260.789C100.763 269.794 108.075 274.797 118.08 276.644C127.393 278.414 131.78 280.877 131.78 286.496C131.78 291.191 127.47 295.193 120.312 295.193C112.077 295.193 107.151 290.575 105.612 281.647L98.3 285.418C100.147 295.039 107.382 302.428 120.389 302.428C132.473 302.428 140.092 294.885 140.092 286.188C140.092 277.183 134.397 272.334 122.698 270.102C113.154 268.255 108.613 265.561 108.613 260.635ZM143.792 255.017H160.417V301.35H168.729V255.017H185.354V247.474H143.792V255.017Z" fill="#0C0C0C"></path> <path d="M200.983 301.35H236.309V293.962H209.295V247.476H200.983V301.35ZM243.899 301.35H279.533V293.962H252.211V277.184H277.147V269.795H252.211V254.864H279.302V247.476H243.899V301.35ZM295.793 260.637C295.793 256.019 300.564 253.633 306.337 253.633C313.109 253.633 317.573 257.173 319.728 263.638L326.347 259.79C323.345 251.17 316.188 246.398 306.414 246.398C295.562 246.398 287.942 252.248 287.942 260.791C287.942 269.795 295.254 274.798 305.259 276.645C314.572 278.415 318.959 280.878 318.959 286.496C318.959 291.191 314.649 295.193 307.491 295.193C299.256 295.193 294.33 290.575 292.791 281.648L285.48 285.419C287.327 295.039 294.561 302.428 307.568 302.428C319.651 302.428 327.271 294.885 327.271 286.188C327.271 277.184 321.575 272.335 309.877 270.103C300.333 268.256 295.793 265.562 295.793 260.637ZM344.571 260.637C344.571 256.019 349.343 253.633 355.115 253.633C361.888 253.633 366.352 257.173 368.507 263.638L375.125 259.79C372.124 251.17 364.966 246.398 355.192 246.398C344.34 246.398 336.721 252.248 336.721 260.791C336.721 269.795 344.032 274.798 354.038 276.645C363.35 278.415 367.737 280.878 367.737 286.496C367.737 291.191 363.427 295.193 356.269 295.193C348.034 295.193 343.109 290.575 341.569 281.648L334.258 285.419C336.105 295.039 343.34 302.428 356.346 302.428C368.43 302.428 376.049 294.885 376.049 286.188C376.049 277.184 370.354 272.335 358.655 270.103C349.112 268.256 344.571 265.562 344.571 260.637Z" fill="#E01614"></path> <path d="M254.68 12.7306C254.68 11.1095 256.533 10.1368 258.71 10.1368C261.165 10.1368 263.296 11.48 264.361 14.2592L267.835 12.2211C266.214 8.46927 263.481 6.52386 258.617 6.52386C254.31 6.52386 250.419 8.83982 250.419 12.9622C250.419 17.0383 253.986 19.0764 258.247 19.9101C261.952 20.6512 263.666 21.4849 263.666 23.4767C263.666 25.4684 261.721 26.7653 259.312 26.7653C256.163 26.7653 254.078 24.5883 252.967 21.5776L249.122 23.9862C250.512 27.6454 253.847 30.7951 259.266 30.7951C264.917 30.7951 268.159 27.4138 268.159 23.3377C268.159 19.4469 265.658 17.4552 260.424 16.3898C256.718 15.6951 254.68 14.7224 254.68 12.7306ZM273.305 39.5957H278.03V26.9969C279.512 29.3592 282.43 30.7951 285.765 30.7951C291.925 30.7951 296.789 26.0705 296.789 18.6595C296.789 11.0631 291.925 6.52386 286.182 6.52386C282.615 6.52386 279.465 8.42295 278.03 10.6926V7.17233H273.305V39.5957ZM284.838 10.8779C288.776 10.8779 291.972 14.0276 291.972 18.6595C291.972 23.2914 288.776 26.4411 284.838 26.4411C280.901 26.4411 277.705 23.2914 277.705 18.6595C277.705 14.0276 280.901 10.8779 284.838 10.8779ZM324.961 18.6595C324.961 10.7389 318.754 6.52386 312.686 6.52386C306.618 6.52386 300.411 10.7389 300.411 18.6595C300.411 26.6727 306.618 30.7951 312.686 30.7951C318.754 30.7951 324.961 26.6727 324.961 18.6595ZM312.686 26.4411C308.656 26.4411 305.229 23.3377 305.229 18.6595C305.229 13.9812 308.656 10.8779 312.686 10.8779C316.716 10.8779 320.143 13.9812 320.143 18.6595C320.143 23.3377 316.716 26.4411 312.686 26.4411ZM343.09 6.75546C342.488 6.6165 341.978 6.52386 341.376 6.52386C338.226 6.52386 336.003 8.33031 334.752 11.0631V7.17233H330.028V30.1466H334.752V18.0573C334.752 13.9812 337.115 10.9705 340.496 10.9705C341.098 10.9705 341.7 11.0631 342.302 11.2484L343.09 6.75546ZM345.813 10.9705H349.518V23.9862C349.518 29.2202 352.575 30.7951 356.096 30.7951C357.439 30.7951 358.643 30.5635 359.523 30.2393L359.106 26.2558C358.597 26.3948 357.902 26.5337 357.393 26.5337C355.169 26.5337 354.243 25.4221 354.243 23.1524V10.9705H359.384V7.17233H354.243V0.965563H349.518V7.17233H345.813V10.9705Z" fill="#0C0C0C"></path> <path d="M268.73 72.6473C267.125 75.7118 265.179 77.5116 261.531 77.5116C257.25 77.5116 254.04 74.4471 254.04 69.3395C254.04 64.232 257.396 61.1675 261.531 61.1675C264.255 61.1675 266.687 62.2376 268.438 65.7886L272.378 63.1619C270.676 59.0758 266.784 56.595 261.482 56.595C254.721 56.595 248.981 61.7512 248.981 69.3395C248.981 76.9279 254.478 82.0841 261.482 82.0841C266.541 82.0841 270.287 79.6519 272.573 75.1281L268.73 72.6473ZM277.281 81.403H282.242V47.3528H277.281V81.403ZM288.539 72.7932C288.539 79.1655 292.625 82.0841 297.343 82.0841C300.846 82.0841 303.618 80.4302 305.175 77.5116V81.403H310.137V57.276H305.175V70.3124C305.175 74.4957 302.402 77.5116 298.851 77.5116C295.398 77.5116 293.501 75.5172 293.501 71.7717V57.276H288.539V72.7932ZM316.946 81.403H321.907V77.8521C323.269 80.1383 326.188 82.0841 330.08 82.0841C336.5 82.0841 341.608 77.0738 341.608 69.3395C341.608 61.6053 336.695 56.595 330.323 56.595C326.82 56.595 323.659 58.2489 321.907 60.9243V47.3528H316.946V81.403ZM329.058 77.5116C324.923 77.5116 321.567 74.2039 321.567 69.3395C321.567 64.4752 324.923 61.1675 329.058 61.1675C333.193 61.1675 336.549 64.4752 336.549 69.3395C336.549 74.2039 333.193 77.5116 329.058 77.5116Z" fill="#145AAF"></path> </g> <defs> <clipPath id="clip0_2_166"> <rect width="380.198" height="303.235" fill="white" transform="translate(0.802002)"></rect> </clipPath> </defs> </svg> 