<?xml version="1.0" encoding="UTF-8"?> <svg xmlns="http://www.w3.org/2000/svg" width="265" height="39" viewBox="0 0 265 39" fill="none"> <rect width="265" height="39" rx="19.5" fill="white"></rect> <circle cx="35" cy="19.5" r="5" fill="#FBDE40"></circle> <path d="M51.458 25H53.402V14.164H58.838V25H60.782V12.4H51.458V25ZM63.4944 28.672H65.3304V23.776C65.9064 24.694 67.0404 25.252 68.3364 25.252C70.7304 25.252 72.6204 23.416 72.6204 20.536C72.6204 17.584 70.7304 15.82 68.4984 15.82C67.1124 15.82 65.8884 16.558 65.3304 17.44V16.072H63.4944V28.672ZM67.9764 17.512C69.5064 17.512 70.7484 18.736 70.7484 20.536C70.7484 22.336 69.5064 23.56 67.9764 23.56C66.4464 23.56 65.2044 22.336 65.2044 20.536C65.2044 18.736 66.4464 17.512 67.9764 17.512ZM76.3502 16.072H74.5862V25H76.5302L80.5622 18.538V25H82.3262V16.072H80.3822L76.3502 22.534V16.072ZM87.2329 20.914C88.4749 20.914 89.4289 21.346 89.4289 22.336C89.4289 23.182 88.7989 23.758 87.7729 23.758C86.7649 23.758 85.9729 23.308 85.9729 22.516C85.9729 22.282 86.0089 22.174 86.0629 22.012L84.4609 21.454C84.3169 21.76 84.2449 22.102 84.2449 22.48C84.2449 24.082 85.5229 25.252 87.7009 25.252C90.0589 25.252 91.2109 23.938 91.2109 22.426C91.2109 21.184 90.3109 20.536 89.4289 20.194C90.1669 19.906 90.8329 19.258 90.8329 18.16C90.8329 16.918 89.7889 15.82 87.6829 15.82C85.7209 15.82 84.5329 16.864 84.5329 18.358C84.5329 18.664 84.6049 18.952 84.7309 19.186L86.2069 18.646C86.1709 18.52 86.1529 18.394 86.1529 18.268C86.1529 17.62 86.8909 17.206 87.6829 17.206C88.6189 17.206 89.1949 17.638 89.1949 18.286C89.1949 19.078 88.6729 19.582 87.2329 19.582V20.914ZM101.448 20.932V20.284C101.448 17.692 99.7019 15.82 97.1279 15.82C94.5899 15.82 92.5379 17.728 92.5379 20.536C92.5379 23.344 94.5899 25.252 97.0379 25.252C99.0719 25.252 100.332 24.37 101.178 22.642L99.7559 21.796C99.2339 22.858 98.5499 23.65 97.0919 23.65C95.5259 23.65 94.4279 22.516 94.3739 20.932H101.448ZM97.0919 17.296C98.3159 17.296 99.5579 18.07 99.7019 19.528H94.3739C94.6979 18.25 95.7419 17.296 97.0919 17.296ZM97.5779 14.524H99.4679V12.58H97.5779V14.524ZM94.5359 14.524H96.4259V12.58H94.5359V14.524ZM103.379 28.672H105.215V23.776C105.791 24.694 106.925 25.252 108.221 25.252C110.615 25.252 112.505 23.416 112.505 20.536C112.505 17.584 110.615 15.82 108.383 15.82C106.997 15.82 105.773 16.558 105.215 17.44V16.072H103.379V28.672ZM107.861 17.512C109.391 17.512 110.633 18.736 110.633 20.536C110.633 22.336 109.391 23.56 107.861 23.56C106.331 23.56 105.089 22.336 105.089 20.536C105.089 18.736 106.331 17.512 107.861 17.512ZM119.644 25H121.588V12.4H119.644V25ZM129.373 15.91C129.139 15.856 128.941 15.82 128.707 15.82C127.483 15.82 126.619 16.522 126.133 17.584V16.072H124.297V25H126.133V20.302C126.133 18.718 127.051 17.548 128.365 17.548C128.599 17.548 128.833 17.584 129.067 17.656L129.373 15.91ZM139.537 20.536C139.537 17.458 137.125 15.82 134.767 15.82C132.409 15.82 129.997 17.458 129.997 20.536C129.997 23.65 132.409 25.252 134.767 25.252C137.125 25.252 139.537 23.65 139.537 20.536ZM134.767 23.56C133.201 23.56 131.869 22.354 131.869 20.536C131.869 18.718 133.201 17.512 134.767 17.512C136.333 17.512 137.665 18.718 137.665 20.536C137.665 22.354 136.333 23.56 134.767 23.56ZM149.498 18.934C149.498 16.918 148.13 15.82 146.384 15.82C145.088 15.82 143.972 16.504 143.342 17.566V16.072H141.506V25H143.342V20.284C143.342 18.61 144.404 17.512 145.682 17.512C146.96 17.512 147.662 18.25 147.662 19.474V25H149.498V18.934ZM159.026 15.478C159.026 14.398 160.142 13.84 161.492 13.84C163.076 13.84 164.12 14.668 164.624 16.18L166.172 15.28C165.47 13.264 163.796 12.148 161.51 12.148C158.972 12.148 157.19 13.516 157.19 15.514C157.19 17.62 158.9 18.79 161.24 19.222C163.418 19.636 164.444 20.212 164.444 21.526C164.444 22.624 163.436 23.56 161.762 23.56C159.836 23.56 158.684 22.48 158.324 20.392L156.614 21.274C157.046 23.524 158.738 25.252 161.78 25.252C164.606 25.252 166.388 23.488 166.388 21.454C166.388 19.348 165.056 18.214 162.32 17.692C160.088 17.26 159.026 16.63 159.026 15.478ZM167.539 17.548H168.979V22.606C168.979 24.64 170.167 25.252 171.535 25.252C172.057 25.252 172.525 25.162 172.867 25.036L172.705 23.488C172.507 23.542 172.237 23.596 172.039 23.596C171.175 23.596 170.815 23.164 170.815 22.282V17.548H172.813V16.072H170.815V13.66H168.979V16.072H167.539V17.548ZM182.562 25C182.148 24.334 182.022 23.794 182.022 22.768V18.844C182.022 16.9 180.762 15.82 178.314 15.82C176.064 15.82 174.714 17.08 174.714 18.466C174.714 18.718 174.768 18.952 174.858 19.186L176.496 18.628C176.442 18.484 176.46 18.448 176.46 18.358C176.46 17.728 177.036 17.188 178.314 17.188C179.556 17.188 180.186 17.71 180.186 18.736V19.114L177.36 19.564C175.65 19.852 174.21 20.68 174.21 22.498C174.21 24.136 175.452 25.252 177.252 25.252C178.566 25.252 179.646 24.64 180.222 23.434C180.276 24.28 180.51 24.73 180.726 25H182.562ZM177.54 23.722C176.622 23.722 176.046 23.2 176.046 22.39C176.046 21.544 176.64 21.076 177.774 20.878L180.186 20.464V20.716C180.186 22.444 179.142 23.722 177.54 23.722ZM189.402 15.91C189.168 15.856 188.97 15.82 188.736 15.82C187.512 15.82 186.648 16.522 186.162 17.584V16.072H184.326V25H186.162V20.302C186.162 18.718 187.08 17.548 188.394 17.548C188.628 17.548 188.862 17.584 189.096 17.656L189.402 15.91ZM195.586 23.614V25H203.938V23.236H198.502L201.706 20.068C203.38 18.43 203.902 17.242 203.902 15.676C203.902 13.66 202.408 12.148 199.798 12.148C197.278 12.148 195.64 13.93 195.64 15.82C195.64 16.27 195.694 16.72 195.856 17.134L197.656 16.81C197.566 16.558 197.512 16.288 197.512 16C197.512 14.632 198.484 13.84 199.78 13.84C201.148 13.84 202.03 14.632 202.03 15.928C202.03 16.99 201.58 17.746 200.428 18.898L195.586 23.614ZM216.695 18.7C216.695 14.758 214.373 12.148 211.115 12.148C207.857 12.148 205.535 14.758 205.535 18.7C205.535 22.642 207.857 25.252 211.115 25.252C214.373 25.252 216.695 22.642 216.695 18.7ZM211.115 23.488C209.009 23.488 207.479 21.706 207.479 18.7C207.479 15.694 209.009 13.912 211.115 13.912C213.221 13.912 214.751 15.694 214.751 18.7C214.751 21.706 213.221 23.488 211.115 23.488ZM218.139 23.614V25H226.491V23.236H221.055L224.259 20.068C225.933 18.43 226.455 17.242 226.455 15.676C226.455 13.66 224.961 12.148 222.351 12.148C219.831 12.148 218.193 13.93 218.193 15.82C218.193 16.27 218.247 16.72 218.409 17.134L220.209 16.81C220.119 16.558 220.065 16.288 220.065 16C220.065 14.632 221.037 13.84 222.333 13.84C223.701 13.84 224.583 14.632 224.583 15.928C224.583 16.99 224.133 17.746 222.981 18.898L218.139 23.614ZM228.668 15.712C229.802 15.712 230.576 15.568 231.278 14.866V25H233.222V12.4H231.422C230.9 13.462 230.144 13.984 228.668 13.984V15.712Z" fill="#0C0C0C"></path> </svg> 