<?xml version="1.0" encoding="UTF-8"?> <svg xmlns="http://www.w3.org/2000/svg" width="425" height="39" viewBox="0 0 425 39" fill="none"> <rect width="425" height="39" rx="19.5" fill="white"></rect> <circle cx="35" cy="19.5" r="5" fill="#E01614"></circle> <path d="M51.458 25V12.4H60.782V25H58.838V14.164H53.402V25H51.458ZM63.4944 28.672V16.072H65.3304V17.44C65.8884 16.558 67.1124 15.82 68.4984 15.82C70.7304 15.82 72.6204 17.584 72.6204 20.536C72.6204 23.416 70.7304 25.252 68.3364 25.252C67.0404 25.252 65.9064 24.694 65.3304 23.776V28.672H63.4944ZM67.9764 17.512C66.4464 17.512 65.2044 18.736 65.2044 20.536C65.2044 22.336 66.4464 23.56 67.9764 23.56C69.5064 23.56 70.7484 22.336 70.7484 20.536C70.7484 18.736 69.5064 17.512 67.9764 17.512ZM76.3502 16.072V22.534L80.3822 16.072H82.3262V25H80.5622V18.538L76.5302 25H74.5862V16.072H76.3502ZM87.2329 20.914V19.582C88.6729 19.582 89.1949 19.078 89.1949 18.286C89.1949 17.638 88.6189 17.206 87.6829 17.206C86.8909 17.206 86.1529 17.62 86.1529 18.268C86.1529 18.394 86.1709 18.52 86.2069 18.646L84.7309 19.186C84.6049 18.952 84.5329 18.664 84.5329 18.358C84.5329 16.864 85.7209 15.82 87.6829 15.82C89.7889 15.82 90.8329 16.918 90.8329 18.16C90.8329 19.258 90.1669 19.906 89.4289 20.194C90.3109 20.536 91.2109 21.184 91.2109 22.426C91.2109 23.938 90.0589 25.252 87.7009 25.252C85.5229 25.252 84.2449 24.082 84.2449 22.48C84.2449 22.102 84.3169 21.76 84.4609 21.454L86.0629 22.012C86.0089 22.174 85.9729 22.282 85.9729 22.516C85.9729 23.308 86.7649 23.758 87.7729 23.758C88.7989 23.758 89.4289 23.182 89.4289 22.336C89.4289 21.346 88.4749 20.914 87.2329 20.914ZM101.448 20.932H94.3739C94.4279 22.516 95.5259 23.65 97.0919 23.65C98.5499 23.65 99.2339 22.858 99.7559 21.796L101.178 22.642C100.332 24.37 99.0719 25.252 97.0379 25.252C94.5899 25.252 92.5379 23.344 92.5379 20.536C92.5379 17.728 94.5899 15.82 97.1279 15.82C99.7019 15.82 101.448 17.692 101.448 20.284V20.932ZM97.0919 17.296C95.7419 17.296 94.6979 18.25 94.3739 19.528H99.7019C99.5579 18.07 98.3159 17.296 97.0919 17.296ZM97.5779 14.524V12.58H99.4679V14.524H97.5779ZM94.5359 14.524V12.58H96.4259V14.524H94.5359ZM103.379 28.672V16.072H105.215V17.44C105.773 16.558 106.997 15.82 108.383 15.82C110.615 15.82 112.505 17.584 112.505 20.536C112.505 23.416 110.615 25.252 108.221 25.252C106.925 25.252 105.791 24.694 105.215 23.776V28.672H103.379ZM107.861 17.512C106.331 17.512 105.089 18.736 105.089 20.536C105.089 22.336 106.331 23.56 107.861 23.56C109.391 23.56 110.633 22.336 110.633 20.536C110.633 18.736 109.391 17.512 107.861 17.512ZM119.644 25V12.4H128.968V25H127.024V14.164H121.588V25H119.644ZM139.891 20.932H132.817C132.871 22.516 133.969 23.65 135.535 23.65C136.993 23.65 137.677 22.858 138.199 21.796L139.621 22.642C138.775 24.37 137.515 25.252 135.481 25.252C133.033 25.252 130.981 23.344 130.981 20.536C130.981 17.728 133.033 15.82 135.571 15.82C138.145 15.82 139.891 17.692 139.891 20.284V20.932ZM135.535 17.296C134.185 17.296 133.141 18.25 132.817 19.528H138.145C138.001 18.07 136.759 17.296 135.535 17.296ZM141.823 28.672V16.072H143.659V17.44C144.217 16.558 145.441 15.82 146.827 15.82C149.059 15.82 150.949 17.584 150.949 20.536C150.949 23.416 149.059 25.252 146.665 25.252C145.369 25.252 144.235 24.694 143.659 23.776V28.672H141.823ZM146.305 17.512C144.775 17.512 143.533 18.736 143.533 20.536C143.533 22.336 144.775 23.56 146.305 23.56C147.835 23.56 149.077 22.336 149.077 20.536C149.077 18.736 147.835 17.512 146.305 17.512ZM152.914 25V16.072H156.892C158.782 16.072 159.826 17.098 159.826 18.34C159.826 19.348 159.25 19.942 158.44 20.284C159.43 20.644 160.15 21.202 160.15 22.426C160.15 23.938 158.908 25 157 25H152.914ZM154.714 17.512V19.636H156.802C157.684 19.636 158.116 19.276 158.116 18.574C158.116 17.872 157.684 17.512 156.802 17.512H154.714ZM154.714 21.076V23.524H156.928C157.864 23.524 158.35 23.074 158.35 22.3C158.35 21.526 157.864 21.076 156.928 21.076H154.714ZM170.46 20.932H163.386C163.44 22.516 164.538 23.65 166.104 23.65C167.562 23.65 168.246 22.858 168.768 21.796L170.19 22.642C169.344 24.37 168.084 25.252 166.05 25.252C163.602 25.252 161.55 23.344 161.55 20.536C161.55 17.728 163.602 15.82 166.14 15.82C168.714 15.82 170.46 17.692 170.46 20.284V20.932ZM166.104 17.296C164.754 17.296 163.71 18.25 163.386 19.528H168.714C168.57 18.07 167.328 17.296 166.104 17.296ZM174.225 16.072V19.492H178.221V16.072H179.985V25H178.221V21.076H174.225V25H172.461V16.072H174.225ZM189.248 21.76L190.67 22.678C189.824 24.352 188.438 25.252 186.566 25.252C183.974 25.252 181.94 23.344 181.94 20.536C181.94 17.728 184.064 15.82 186.566 15.82C188.528 15.82 189.968 16.738 190.598 18.25L189.14 19.222C188.492 17.908 187.592 17.512 186.584 17.512C185.054 17.512 183.812 18.646 183.812 20.536C183.812 22.426 185 23.56 186.584 23.56C187.934 23.56 188.654 22.894 189.248 21.76ZM191.517 17.656V16.072H198.537V17.656H195.945V25H194.109V17.656H191.517ZM200.34 25V16.072H204.318C206.208 16.072 207.252 17.098 207.252 18.34C207.252 19.348 206.676 19.942 205.866 20.284C206.856 20.644 207.576 21.202 207.576 22.426C207.576 23.938 206.334 25 204.426 25H200.34ZM202.14 17.512V19.636H204.228C205.11 19.636 205.542 19.276 205.542 18.574C205.542 17.872 205.11 17.512 204.228 17.512H202.14ZM202.14 21.076V23.524H204.354C205.29 23.524 205.776 23.074 205.776 22.3C205.776 21.526 205.29 21.076 204.354 21.076H202.14ZM217.489 25H215.653C215.437 24.73 215.203 24.28 215.149 23.434C214.573 24.64 213.493 25.252 212.179 25.252C210.379 25.252 209.137 24.136 209.137 22.498C209.137 20.68 210.577 19.852 212.287 19.564L215.113 19.114V18.736C215.113 17.71 214.483 17.188 213.241 17.188C211.963 17.188 211.387 17.728 211.387 18.358C211.387 18.448 211.369 18.484 211.423 18.628L209.785 19.186C209.695 18.952 209.641 18.718 209.641 18.466C209.641 17.08 210.991 15.82 213.241 15.82C215.689 15.82 216.949 16.9 216.949 18.844V22.768C216.949 23.794 217.075 24.334 217.489 25ZM212.467 23.722C214.069 23.722 215.113 22.444 215.113 20.716V20.464L212.701 20.878C211.567 21.076 210.973 21.544 210.973 22.39C210.973 23.2 211.549 23.722 212.467 23.722ZM224.69 25V12.4H230.198C232.934 12.4 234.734 13.894 234.734 16.414C234.734 18.934 232.934 20.428 230.198 20.428H226.634V25H224.69ZM226.634 14.128V18.7H230.126C231.872 18.7 232.79 17.836 232.79 16.414C232.79 14.992 231.872 14.128 230.126 14.128H226.634ZM245.058 20.536C245.058 23.65 242.646 25.252 240.288 25.252C237.93 25.252 235.518 23.65 235.518 20.536C235.518 17.458 237.93 15.82 240.288 15.82C242.646 15.82 245.058 17.458 245.058 20.536ZM240.288 23.56C241.854 23.56 243.186 22.354 243.186 20.536C243.186 18.718 241.854 17.512 240.288 17.512C238.722 17.512 237.39 18.718 237.39 20.536C237.39 22.354 238.722 23.56 240.288 23.56ZM253.778 21.76L255.2 22.678C254.354 24.352 252.968 25.252 251.096 25.252C248.504 25.252 246.47 23.344 246.47 20.536C246.47 17.728 248.594 15.82 251.096 15.82C253.058 15.82 254.498 16.738 255.128 18.25L253.67 19.222C253.022 17.908 252.122 17.512 251.114 17.512C249.584 17.512 248.342 18.646 248.342 20.536C248.342 22.426 249.53 23.56 251.114 23.56C252.464 23.56 253.184 22.894 253.778 21.76ZM263.709 21.76L265.131 22.678C264.285 24.352 262.899 25.252 261.027 25.252C258.435 25.252 256.401 23.344 256.401 20.536C256.401 17.728 258.525 15.82 261.027 15.82C262.989 15.82 264.429 16.738 265.059 18.25L263.601 19.222C262.953 17.908 262.053 17.512 261.045 17.512C259.515 17.512 258.273 18.646 258.273 20.536C258.273 22.426 259.461 23.56 261.045 23.56C262.395 23.56 263.115 22.894 263.709 21.76ZM268.532 16.072V22.534L272.564 16.072H274.508V25H272.744V18.538L268.712 25H266.768V16.072H268.532ZM278.71 16.072V22.534L282.742 16.072H284.686V25H282.922V18.538L278.89 25H276.946V16.072H278.71ZM299.71 16.072V25H297.874V17.692H294.022V25H292.186V16.072H299.71ZM311.205 20.536C311.205 23.65 308.793 25.252 306.435 25.252C304.077 25.252 301.665 23.65 301.665 20.536C301.665 17.458 304.077 15.82 306.435 15.82C308.793 15.82 311.205 17.458 311.205 20.536ZM306.435 23.56C308.001 23.56 309.333 22.354 309.333 20.536C309.333 18.718 308.001 17.512 306.435 17.512C304.869 17.512 303.537 18.718 303.537 20.536C303.537 22.354 304.869 23.56 306.435 23.56ZM327.005 23.38V26.908H325.493V25H319.139V26.908H317.627V23.38H318.563C318.995 22.57 319.247 21.76 319.373 20.608L319.805 16.072H326.087V23.38H327.005ZM321.443 17.638L321.155 20.77C321.029 21.994 320.777 22.678 320.435 23.38H324.323V17.638H321.443ZM328.798 28.6L329.086 26.926C329.302 27.016 329.59 27.106 329.896 27.106C330.382 27.106 330.634 26.962 330.976 26.152L331.39 25.054L327.754 16.072H329.86L332.38 22.516L334.882 16.072H336.916L332.596 26.8C332.02 28.258 331.174 28.798 330.094 28.798C329.608 28.798 329.14 28.726 328.798 28.6ZM345.88 25H344.044C343.828 24.73 343.594 24.28 343.54 23.434C342.964 24.64 341.884 25.252 340.57 25.252C338.77 25.252 337.528 24.136 337.528 22.498C337.528 20.68 338.968 19.852 340.678 19.564L343.504 19.114V18.736C343.504 17.71 342.874 17.188 341.632 17.188C340.354 17.188 339.778 17.728 339.778 18.358C339.778 18.448 339.76 18.484 339.814 18.628L338.176 19.186C338.086 18.952 338.032 18.718 338.032 18.466C338.032 17.08 339.382 15.82 341.632 15.82C344.08 15.82 345.34 16.9 345.34 18.844V22.768C345.34 23.794 345.466 24.334 345.88 25ZM340.858 23.722C342.46 23.722 343.504 22.444 343.504 20.716V20.464L341.092 20.878C339.958 21.076 339.364 21.544 339.364 22.39C339.364 23.2 339.94 23.722 340.858 23.722ZM346.608 17.656V16.072H353.628V17.656H351.036V25H349.2V17.656H346.608ZM362.853 16.072V25H361.017V17.692H357.867L357.345 22.966C357.201 24.478 356.481 25.126 355.383 25.126C354.987 25.126 354.627 25.09 354.285 25L354.555 23.38C354.717 23.434 354.861 23.47 355.023 23.47C355.401 23.47 355.527 23.2 355.581 22.768L356.247 16.072H362.853ZM374.363 20.536C374.363 23.65 371.951 25.252 369.593 25.252C367.235 25.252 364.823 23.65 364.823 20.536C364.823 17.458 367.235 15.82 369.593 15.82C371.951 15.82 374.363 17.458 374.363 20.536ZM369.593 23.56C371.159 23.56 372.491 22.354 372.491 20.536C372.491 18.718 371.159 17.512 369.593 17.512C368.027 17.512 366.695 18.718 366.695 20.536C366.695 22.354 368.027 23.56 369.593 23.56ZM378.096 16.072V19.492H382.092V16.072H383.856V25H382.092V21.076H378.096V25H376.332V16.072H378.096ZM386.243 28.6L386.531 26.926C386.747 27.016 387.035 27.106 387.341 27.106C387.827 27.106 388.079 26.962 388.421 26.152L388.835 25.054L385.199 16.072H387.305L389.825 22.516L392.327 16.072H394.361L390.041 26.8C389.465 28.258 388.619 28.798 387.539 28.798C387.053 28.798 386.585 28.726 386.243 28.6Z" fill="#0C0C0C"></path> </svg> 