<?xml version="1.0" encoding="UTF-8"?> <svg xmlns="http://www.w3.org/2000/svg" width="558" height="62" viewBox="0 0 558 62" fill="none"> <rect width="558" height="62" rx="31" fill="white"></rect> <circle cx="35" cy="18" r="5" fill="#FBDE40"></circle> <path d="M51.458 25V12.4H53.528L57.794 23.074L62.06 12.4H64.13V25H62.258V16.27L61.898 17.278L61.61 18.052L58.73 25H56.858L53.978 18.052L53.69 17.278L53.33 16.27V25H51.458ZM68.6158 16.072V19.492H72.6118V16.072H74.3758V25H72.6118V21.076H68.6158V25H66.8518V16.072H68.6158ZM85.8709 20.536C85.8709 23.65 83.4589 25.252 81.1009 25.252C78.7429 25.252 76.3309 23.65 76.3309 20.536C76.3309 17.458 78.7429 15.82 81.1009 15.82C83.4589 15.82 85.8709 17.458 85.8709 20.536ZM81.1009 23.56C82.6669 23.56 83.9989 22.354 83.9989 20.536C83.9989 18.718 82.6669 17.512 81.1009 17.512C79.5349 17.512 78.2029 18.718 78.2029 20.536C78.2029 22.354 79.5349 23.56 81.1009 23.56ZM87.8401 25V16.072H93.6001V17.728H89.6761V25H87.8401ZM103.976 20.536C103.976 23.65 101.564 25.252 99.2064 25.252C96.8484 25.252 94.4364 23.65 94.4364 20.536C94.4364 17.458 96.8484 15.82 99.2064 15.82C101.564 15.82 103.976 17.458 103.976 20.536ZM99.2064 23.56C100.772 23.56 102.104 22.354 102.104 20.536C102.104 18.718 100.772 17.512 99.2064 17.512C97.6404 17.512 96.3084 18.718 96.3084 20.536C96.3084 22.354 97.6404 23.56 99.2064 23.56ZM107.782 16.072V19.42L110.842 16.072H113.074L109.852 19.546L113.614 25H111.472L108.592 20.896L107.782 21.76V25H105.946V16.072H107.782ZM115.121 28.672V16.072H116.957V17.44C117.515 16.558 118.739 15.82 120.125 15.82C122.357 15.82 124.247 17.584 124.247 20.536C124.247 23.416 122.357 25.252 119.963 25.252C118.667 25.252 117.533 24.694 116.957 23.776V28.672H115.121ZM119.603 17.512C118.073 17.512 116.831 18.736 116.831 20.536C116.831 22.336 118.073 23.56 119.603 23.56C121.133 23.56 122.375 22.336 122.375 20.536C122.375 18.736 121.133 17.512 119.603 17.512ZM134.081 25H132.245C132.029 24.73 131.795 24.28 131.741 23.434C131.165 24.64 130.085 25.252 128.771 25.252C126.971 25.252 125.729 24.136 125.729 22.498C125.729 20.68 127.169 19.852 128.879 19.564L131.705 19.114V18.736C131.705 17.71 131.075 17.188 129.833 17.188C128.555 17.188 127.979 17.728 127.979 18.358C127.979 18.448 127.961 18.484 128.015 18.628L126.377 19.186C126.287 18.952 126.233 18.718 126.233 18.466C126.233 17.08 127.583 15.82 129.833 15.82C132.281 15.82 133.541 16.9 133.541 18.844V22.768C133.541 23.794 133.667 24.334 134.081 25ZM129.059 23.722C130.661 23.722 131.705 22.444 131.705 20.716V20.464L129.293 20.878C128.159 21.076 127.565 21.544 127.565 22.39C127.565 23.2 128.141 23.722 129.059 23.722ZM134.81 17.656V16.072H141.83V17.656H139.238V25H137.402V17.656H134.81ZM145.397 16.072V19.492H149.393V16.072H151.157V25H149.393V21.076H145.397V25H143.633V16.072H145.397ZM162.258 25V16.072H164.094V25H162.258ZM153.582 16.072H155.346V19.636H157.668C159.612 19.636 160.782 20.662 160.782 22.3C160.782 24.01 159.54 25 157.668 25H153.582V16.072ZM155.346 21.076V23.524H157.596C158.532 23.524 159.018 23.074 159.018 22.3C159.018 21.526 158.532 21.076 157.596 21.076H155.346ZM168.284 16.072V22.534L172.316 16.072H174.26V25H172.496V18.538L168.464 25H166.52V16.072H168.284ZM171.074 12.868H172.334C172.334 13.966 171.596 14.812 170.39 14.812C169.184 14.812 168.446 13.966 168.446 12.868H169.706C169.706 13.354 169.958 13.642 170.39 13.642C170.822 13.642 171.074 13.354 171.074 12.868ZM189.284 16.072V25H187.448V17.692H183.596V25H181.76V16.072H189.284ZM200.779 20.536C200.779 23.65 198.367 25.252 196.009 25.252C193.651 25.252 191.239 23.65 191.239 20.536C191.239 17.458 193.651 15.82 196.009 15.82C198.367 15.82 200.779 17.458 200.779 20.536ZM196.009 23.56C197.575 23.56 198.907 22.354 198.907 20.536C198.907 18.718 197.575 17.512 196.009 17.512C194.443 17.512 193.111 18.718 193.111 20.536C193.111 22.354 194.443 23.56 196.009 23.56ZM209.462 12.094L210.002 13.462C209.426 13.84 208.94 13.984 208.076 13.984C205.898 13.984 204.44 15.19 204.134 18.016C204.764 16.936 205.934 16.252 207.284 16.252C209.606 16.252 211.406 18.016 211.406 20.698C211.406 23.38 209.48 25.252 206.96 25.252C204.008 25.252 202.298 22.876 202.298 19.222C202.298 17.584 202.64 16.324 203.162 15.244C204.17 13.174 206.114 12.4 207.986 12.4C208.616 12.4 209.048 12.292 209.462 12.094ZM206.96 17.872C205.448 17.872 204.278 19.096 204.278 20.752C204.278 22.408 205.448 23.632 206.96 23.632C208.472 23.632 209.66 22.408 209.66 20.752C209.66 19.096 208.472 17.872 206.96 17.872ZM221.823 20.932H214.749C214.803 22.516 215.901 23.65 217.467 23.65C218.925 23.65 219.609 22.858 220.131 21.796L221.553 22.642C220.707 24.37 219.447 25.252 217.413 25.252C214.965 25.252 212.913 23.344 212.913 20.536C212.913 17.728 214.965 15.82 217.503 15.82C220.077 15.82 221.823 17.692 221.823 20.284V20.932ZM217.467 17.296C216.117 17.296 215.073 18.25 214.749 19.528H220.077C219.933 18.07 218.691 17.296 217.467 17.296ZM232.153 23.38V26.908H230.641V25H224.287V26.908H222.775V23.38H223.711C224.143 22.57 224.395 21.76 224.521 20.608L224.953 16.072H231.235V23.38H232.153ZM226.591 17.638L226.303 20.77C226.177 21.994 225.925 22.678 225.583 23.38H229.471V17.638H226.591ZM236.047 16.072V22.534L240.079 16.072H242.023V25H240.259V18.538L236.227 25H234.283V16.072H236.047ZM243.688 17.656V16.072H250.708V17.656H248.116V25H246.28V17.656H243.688ZM260.319 20.932H253.245C253.299 22.516 254.397 23.65 255.963 23.65C257.421 23.65 258.105 22.858 258.627 21.796L260.049 22.642C259.203 24.37 257.943 25.252 255.909 25.252C253.461 25.252 251.409 23.344 251.409 20.536C251.409 17.728 253.461 15.82 255.999 15.82C258.573 15.82 260.319 17.692 260.319 20.284V20.932ZM255.963 17.296C254.613 17.296 253.569 18.25 253.245 19.528H258.573C258.429 18.07 257.187 17.296 255.963 17.296ZM269.795 16.072V25H267.959V17.692H264.809L264.287 22.966C264.143 24.478 263.423 25.126 262.325 25.126C261.929 25.126 261.569 25.09 261.227 25L261.497 23.38C261.659 23.434 261.803 23.47 261.965 23.47C262.343 23.47 262.469 23.2 262.523 22.768L263.189 16.072H269.795ZM272.235 16.072H273.999V19.636H276.321C278.265 19.636 279.435 20.662 279.435 22.3C279.435 24.01 278.193 25 276.321 25H272.235V16.072ZM273.999 21.076V23.524H276.249C277.185 23.524 277.671 23.074 277.671 22.3C277.671 21.526 277.185 21.076 276.249 21.076H273.999ZM288.254 16.072V22.534L292.286 16.072H294.23V25H292.466V18.538L288.434 25H286.49V16.072H288.254ZM309.255 16.072V25H307.419V17.692H303.567V25H301.731V16.072H309.255ZM311.698 28.672V16.072H313.534V17.44C314.092 16.558 315.316 15.82 316.702 15.82C318.934 15.82 320.824 17.584 320.824 20.536C320.824 23.416 318.934 25.252 316.54 25.252C315.244 25.252 314.11 24.694 313.534 23.776V28.672H311.698ZM316.18 17.512C314.65 17.512 313.408 18.736 313.408 20.536C313.408 22.336 314.65 23.56 316.18 23.56C317.71 23.56 318.952 22.336 318.952 20.536C318.952 18.736 317.71 17.512 316.18 17.512ZM324.553 16.072V22.534L328.585 16.072H330.529V25H328.765V18.538L324.733 25H322.789V16.072H324.553ZM335.436 20.914V19.582C336.876 19.582 337.398 19.078 337.398 18.286C337.398 17.638 336.822 17.206 335.886 17.206C335.094 17.206 334.356 17.62 334.356 18.268C334.356 18.394 334.374 18.52 334.41 18.646L332.934 19.186C332.808 18.952 332.736 18.664 332.736 18.358C332.736 16.864 333.924 15.82 335.886 15.82C337.992 15.82 339.036 16.918 339.036 18.16C339.036 19.258 338.37 19.906 337.632 20.194C338.514 20.536 339.414 21.184 339.414 22.426C339.414 23.938 338.262 25.252 335.904 25.252C333.726 25.252 332.448 24.082 332.448 22.48C332.448 22.102 332.52 21.76 332.664 21.454L334.266 22.012C334.212 22.174 334.176 22.282 334.176 22.516C334.176 23.308 334.968 23.758 335.976 23.758C337.002 23.758 337.632 23.182 337.632 22.336C337.632 21.346 336.678 20.914 335.436 20.914ZM349.651 20.932H342.577C342.631 22.516 343.729 23.65 345.295 23.65C346.753 23.65 347.437 22.858 347.959 21.796L349.381 22.642C348.535 24.37 347.275 25.252 345.241 25.252C342.793 25.252 340.741 23.344 340.741 20.536C340.741 17.728 342.793 15.82 345.331 15.82C347.905 15.82 349.651 17.692 349.651 20.284V20.932ZM345.295 17.296C343.945 17.296 342.901 18.25 342.577 19.528H347.905C347.761 18.07 346.519 17.296 345.295 17.296ZM345.781 14.524V12.58H347.671V14.524H345.781ZM342.739 14.524V12.58H344.629V14.524H342.739ZM351.582 28.672V16.072H353.418V17.44C353.976 16.558 355.2 15.82 356.586 15.82C358.818 15.82 360.708 17.584 360.708 20.536C360.708 23.416 358.818 25.252 356.424 25.252C355.128 25.252 353.994 24.694 353.418 23.776V28.672H351.582ZM356.064 17.512C354.534 17.512 353.292 18.736 353.292 20.536C353.292 22.336 354.534 23.56 356.064 23.56C357.594 23.56 358.836 22.336 358.836 20.536C358.836 18.736 357.594 17.512 356.064 17.512ZM375.173 16.072V25H373.337V17.692H369.485V25H367.649V16.072H375.173ZM386.038 20.932H378.964C379.018 22.516 380.116 23.65 381.682 23.65C383.14 23.65 383.824 22.858 384.346 21.796L385.768 22.642C384.922 24.37 383.662 25.252 381.628 25.252C379.18 25.252 377.128 23.344 377.128 20.536C377.128 17.728 379.18 15.82 381.718 15.82C384.292 15.82 386.038 17.692 386.038 20.284V20.932ZM381.682 17.296C380.332 17.296 379.288 18.25 378.964 19.528H384.292C384.148 18.07 382.906 17.296 381.682 17.296ZM387.969 28.672V16.072H389.805V17.44C390.363 16.558 391.587 15.82 392.973 15.82C395.205 15.82 397.095 17.584 397.095 20.536C397.095 23.416 395.205 25.252 392.811 25.252C391.515 25.252 390.381 24.694 389.805 23.776V28.672H387.969ZM392.451 17.512C390.921 17.512 389.679 18.736 389.679 20.536C389.679 22.336 390.921 23.56 392.451 23.56C393.981 23.56 395.223 22.336 395.223 20.536C395.223 18.736 393.981 17.512 392.451 17.512ZM399.061 25V16.072H403.039C404.929 16.072 405.973 17.098 405.973 18.34C405.973 19.348 405.397 19.942 404.587 20.284C405.577 20.644 406.297 21.202 406.297 22.426C406.297 23.938 405.055 25 403.147 25H399.061ZM400.861 17.512V19.636H402.949C403.831 19.636 404.263 19.276 404.263 18.574C404.263 17.872 403.831 17.512 402.949 17.512H400.861ZM400.861 21.076V23.524H403.075C404.011 23.524 404.497 23.074 404.497 22.3C404.497 21.526 404.011 21.076 403.075 21.076H400.861ZM416.606 20.932H409.532C409.586 22.516 410.684 23.65 412.25 23.65C413.708 23.65 414.392 22.858 414.914 21.796L416.336 22.642C415.49 24.37 414.23 25.252 412.196 25.252C409.748 25.252 407.696 23.344 407.696 20.536C407.696 17.728 409.748 15.82 412.286 15.82C414.86 15.82 416.606 17.692 416.606 20.284V20.932ZM412.25 17.296C410.9 17.296 409.856 18.25 409.532 19.528H414.86C414.716 18.07 413.474 17.296 412.25 17.296ZM420.372 16.072V19.492H424.368V16.072H426.132V25H424.368V21.076H420.372V25H418.608V16.072H420.372ZM435.395 21.76L436.817 22.678C435.971 24.352 434.585 25.252 432.713 25.252C430.121 25.252 428.087 23.344 428.087 20.536C428.087 17.728 430.211 15.82 432.713 15.82C434.675 15.82 436.115 16.738 436.745 18.25L435.287 19.222C434.639 17.908 433.739 17.512 432.731 17.512C431.201 17.512 429.959 18.646 429.959 20.536C429.959 22.426 431.147 23.56 432.731 23.56C434.081 23.56 434.801 22.894 435.395 21.76ZM437.663 17.656V16.072H444.683V17.656H442.091V25H440.255V17.656H437.663ZM446.487 25V16.072H450.465C452.355 16.072 453.399 17.098 453.399 18.34C453.399 19.348 452.823 19.942 452.013 20.284C453.003 20.644 453.723 21.202 453.723 22.426C453.723 23.938 452.481 25 450.573 25H446.487ZM448.287 17.512V19.636H450.375C451.257 19.636 451.689 19.276 451.689 18.574C451.689 17.872 451.257 17.512 450.375 17.512H448.287ZM448.287 21.076V23.524H450.501C451.437 23.524 451.923 23.074 451.923 22.3C451.923 21.526 451.437 21.076 450.501 21.076H448.287ZM461.081 25V12.4H466.589C469.325 12.4 471.125 13.894 471.125 16.414C471.125 18.934 469.325 20.428 466.589 20.428H463.025V25H461.081ZM463.025 14.128V18.7H466.517C468.263 18.7 469.181 17.836 469.181 16.414C469.181 14.992 468.263 14.128 466.517 14.128H463.025ZM481.449 20.536C481.449 23.65 479.037 25.252 476.679 25.252C474.321 25.252 471.909 23.65 471.909 20.536C471.909 17.458 474.321 15.82 476.679 15.82C479.037 15.82 481.449 17.458 481.449 20.536ZM476.679 23.56C478.245 23.56 479.577 22.354 479.577 20.536C479.577 18.718 478.245 17.512 476.679 17.512C475.113 17.512 473.781 18.718 473.781 20.536C473.781 22.354 475.113 23.56 476.679 23.56ZM490.168 21.76L491.59 22.678C490.744 24.352 489.358 25.252 487.486 25.252C484.894 25.252 482.86 23.344 482.86 20.536C482.86 17.728 484.984 15.82 487.486 15.82C489.448 15.82 490.888 16.738 491.518 18.25L490.06 19.222C489.412 17.908 488.512 17.512 487.504 17.512C485.974 17.512 484.732 18.646 484.732 20.536C484.732 22.426 485.92 23.56 487.504 23.56C488.854 23.56 489.574 22.894 490.168 21.76ZM500.1 21.76L501.522 22.678C500.676 24.352 499.29 25.252 497.418 25.252C494.826 25.252 492.792 23.344 492.792 20.536C492.792 17.728 494.916 15.82 497.418 15.82C499.38 15.82 500.82 16.738 501.45 18.25L499.992 19.222C499.344 17.908 498.444 17.512 497.436 17.512C495.906 17.512 494.664 18.646 494.664 20.536C494.664 22.426 495.852 23.56 497.436 23.56C498.786 23.56 499.506 22.894 500.1 21.76ZM504.922 16.072V22.534L508.954 16.072H510.898V25H509.134V18.538L505.102 25H503.158V16.072H504.922ZM515.1 16.072V22.534L519.132 16.072H521.076V25H519.312V18.538L515.28 25H513.336V16.072H515.1ZM53.024 39.072V45.534L57.056 39.072H59V48H57.236V41.538L53.204 48H51.26V39.072H53.024ZM66.6982 48V35.4H68.7682L73.0342 46.074L77.3002 35.4H79.3702V48H77.4982V39.27L77.1382 40.278L76.8502 41.052L73.9702 48H72.0982L69.2182 41.052L68.9302 40.278L68.5702 39.27V48H66.6982ZM90.9334 43.536C90.9334 46.65 88.5214 48.252 86.1634 48.252C83.8054 48.252 81.3934 46.65 81.3934 43.536C81.3934 40.458 83.8054 38.82 86.1634 38.82C88.5214 38.82 90.9334 40.458 90.9334 43.536ZM86.1634 46.56C87.7294 46.56 89.0614 45.354 89.0614 43.536C89.0614 41.718 87.7294 40.512 86.1634 40.512C84.5974 40.512 83.2654 41.718 83.2654 43.536C83.2654 45.354 84.5974 46.56 86.1634 46.56ZM99.6526 44.76L101.075 45.678C100.229 47.352 98.8426 48.252 96.9706 48.252C94.3786 48.252 92.3446 46.344 92.3446 43.536C92.3446 40.728 94.4686 38.82 96.9706 38.82C98.9326 38.82 100.373 39.738 101.003 41.25L99.5446 42.222C98.8966 40.908 97.9966 40.512 96.9886 40.512C95.4586 40.512 94.2166 41.646 94.2166 43.536C94.2166 45.426 95.4046 46.56 96.9886 46.56C98.3386 46.56 99.0586 45.894 99.6526 44.76ZM104.547 39.072V42.42L107.607 39.072H109.839L106.617 42.546L110.379 48H108.237L105.357 43.896L104.547 44.76V48H102.711V39.072H104.547ZM111.606 48V39.072H115.584C117.474 39.072 118.518 40.098 118.518 41.34C118.518 42.348 117.942 42.942 117.132 43.284C118.122 43.644 118.842 44.202 118.842 45.426C118.842 46.938 117.6 48 115.692 48H111.606ZM113.406 40.512V42.636H115.494C116.376 42.636 116.808 42.276 116.808 41.574C116.808 40.872 116.376 40.512 115.494 40.512H113.406ZM113.406 44.076V46.524H115.62C116.556 46.524 117.042 46.074 117.042 45.3C117.042 44.526 116.556 44.076 115.62 44.076H113.406ZM129.475 48V39.072H131.311V48H129.475ZM120.799 39.072H122.563V42.636H124.885C126.829 42.636 127.999 43.662 127.999 45.3C127.999 47.01 126.757 48 124.885 48H120.799V39.072ZM122.563 44.076V46.524H124.813C125.749 46.524 126.235 46.074 126.235 45.3C126.235 44.526 125.749 44.076 124.813 44.076H122.563ZM146.323 39.072V48H144.487V40.692H140.635V48H138.799V39.072H146.323ZM157.818 43.536C157.818 46.65 155.406 48.252 153.048 48.252C150.69 48.252 148.278 46.65 148.278 43.536C148.278 40.458 150.69 38.82 153.048 38.82C155.406 38.82 157.818 40.458 157.818 43.536ZM153.048 46.56C154.614 46.56 155.946 45.354 155.946 43.536C155.946 41.718 154.614 40.512 153.048 40.512C151.482 40.512 150.15 41.718 150.15 43.536C150.15 45.354 151.482 46.56 153.048 46.56ZM171.512 44.76L172.934 45.678C172.088 47.352 170.702 48.252 168.83 48.252C166.238 48.252 164.204 46.344 164.204 43.536C164.204 40.728 166.328 38.82 168.83 38.82C170.792 38.82 172.232 39.738 172.862 41.25L171.404 42.222C170.756 40.908 169.856 40.512 168.848 40.512C167.318 40.512 166.076 41.646 166.076 43.536C166.076 45.426 167.264 46.56 168.848 46.56C170.198 46.56 170.918 45.894 171.512 44.76ZM182.095 39.072V48H180.259V40.692H176.407V48H174.571V39.072H182.095ZM193.59 43.536C193.59 46.65 191.178 48.252 188.82 48.252C186.462 48.252 184.05 46.65 184.05 43.536C184.05 40.458 186.462 38.82 188.82 38.82C191.178 38.82 193.59 40.458 193.59 43.536ZM188.82 46.56C190.386 46.56 191.718 45.354 191.718 43.536C191.718 41.718 190.386 40.512 188.82 40.512C187.254 40.512 185.922 41.718 185.922 43.536C185.922 45.354 187.254 46.56 188.82 46.56ZM195.559 51.672V39.072H197.395V40.44C197.953 39.558 199.177 38.82 200.563 38.82C202.795 38.82 204.685 40.584 204.685 43.536C204.685 46.416 202.795 48.252 200.401 48.252C199.105 48.252 197.971 47.694 197.395 46.776V51.672H195.559ZM200.041 40.512C198.511 40.512 197.269 41.736 197.269 43.536C197.269 45.336 198.511 46.56 200.041 46.56C201.571 46.56 202.813 45.336 202.813 43.536C202.813 41.736 201.571 40.512 200.041 40.512ZM205.386 40.656V39.072H212.406V40.656H209.814V48H207.978V40.656H205.386ZM215.973 39.072V45.534L220.005 39.072H221.949V48H220.185V41.538L216.153 48H214.209V39.072H215.973ZM224.387 48V39.072H228.365C230.255 39.072 231.299 40.098 231.299 41.34C231.299 42.348 230.723 42.942 229.913 43.284C230.903 43.644 231.623 44.202 231.623 45.426C231.623 46.938 230.381 48 228.473 48H224.387ZM226.187 40.512V42.636H228.275C229.157 42.636 229.589 42.276 229.589 41.574C229.589 40.872 229.157 40.512 228.275 40.512H226.187ZM226.187 44.076V46.524H228.401C229.337 46.524 229.823 46.074 229.823 45.3C229.823 44.526 229.337 44.076 228.401 44.076H226.187ZM235.344 39.072V42.492H239.34V39.072H241.104V48H239.34V44.076H235.344V48H233.58V39.072H235.344ZM252.599 43.536C252.599 46.65 250.187 48.252 247.829 48.252C245.471 48.252 243.059 46.65 243.059 43.536C243.059 40.458 245.471 38.82 247.829 38.82C250.187 38.82 252.599 40.458 252.599 43.536ZM247.829 46.56C249.395 46.56 250.727 45.354 250.727 43.536C250.727 41.718 249.395 40.512 247.829 40.512C246.263 40.512 244.931 41.718 244.931 43.536C244.931 45.354 246.263 46.56 247.829 46.56ZM256.333 39.072V45.534L260.365 39.072H262.309V48H260.545V41.538L256.513 48H254.569V39.072H256.333ZM259.123 35.868H260.383C260.383 36.966 259.645 37.812 258.439 37.812C257.233 37.812 256.495 36.966 256.495 35.868H257.755C257.755 36.354 258.007 36.642 258.439 36.642C258.871 36.642 259.123 36.354 259.123 35.868ZM269.809 51.672V39.072H271.645V40.44C272.203 39.558 273.427 38.82 274.813 38.82C277.045 38.82 278.935 40.584 278.935 43.536C278.935 46.416 277.045 48.252 274.651 48.252C273.355 48.252 272.221 47.694 271.645 46.776V51.672H269.809ZM274.291 40.512C272.761 40.512 271.519 41.736 271.519 43.536C271.519 45.336 272.761 46.56 274.291 46.56C275.821 46.56 277.063 45.336 277.063 43.536C277.063 41.736 275.821 40.512 274.291 40.512ZM288.769 48H286.933C286.717 47.73 286.483 47.28 286.429 46.434C285.853 47.64 284.773 48.252 283.459 48.252C281.659 48.252 280.417 47.136 280.417 45.498C280.417 43.68 281.857 42.852 283.567 42.564L286.393 42.114V41.736C286.393 40.71 285.763 40.188 284.521 40.188C283.243 40.188 282.667 40.728 282.667 41.358C282.667 41.448 282.649 41.484 282.703 41.628L281.065 42.186C280.975 41.952 280.921 41.718 280.921 41.466C280.921 40.08 282.271 38.82 284.521 38.82C286.969 38.82 288.229 39.9 288.229 41.844V45.768C288.229 46.794 288.355 47.334 288.769 48ZM283.747 46.722C285.349 46.722 286.393 45.444 286.393 43.716V43.464L283.981 43.878C282.847 44.076 282.253 44.544 282.253 45.39C282.253 46.2 282.829 46.722 283.747 46.722ZM299.653 46.38V49.908H298.141V48H291.787V49.908H290.275V46.38H291.211C291.643 45.57 291.895 44.76 292.021 43.608L292.453 39.072H298.735V46.38H299.653ZM294.091 40.638L293.803 43.77C293.677 44.994 293.425 45.678 293.083 46.38H296.971V40.638H294.091ZM303.547 39.072V45.534L307.579 39.072H309.523V48H307.759V41.538L303.727 48H301.783V39.072H303.547ZM321.031 43.536C321.031 46.65 318.619 48.252 316.261 48.252C313.903 48.252 311.491 46.65 311.491 43.536C311.491 40.458 313.903 38.82 316.261 38.82C318.619 38.82 321.031 40.458 321.031 43.536ZM316.261 46.56C317.827 46.56 319.159 45.354 319.159 43.536C319.159 41.718 317.827 40.512 316.261 40.512C314.695 40.512 313.363 41.718 313.363 43.536C313.363 45.354 314.695 46.56 316.261 46.56ZM330.524 39.072V48H328.688V40.692H324.836V48H323V39.072H330.524ZM341.389 43.932H334.315C334.369 45.516 335.467 46.65 337.033 46.65C338.491 46.65 339.175 45.858 339.697 44.796L341.119 45.642C340.273 47.37 339.013 48.252 336.979 48.252C334.531 48.252 332.479 46.344 332.479 43.536C332.479 40.728 334.531 38.82 337.069 38.82C339.643 38.82 341.389 40.692 341.389 43.284V43.932ZM337.033 40.296C335.683 40.296 334.639 41.25 334.315 42.528H339.643C339.499 41.07 338.257 40.296 337.033 40.296ZM350.865 39.072V48H349.029V40.692H345.879L345.357 45.966C345.213 47.478 344.493 48.126 343.395 48.126C342.999 48.126 342.639 48.09 342.297 48L342.567 46.38C342.729 46.434 342.873 46.47 343.035 46.47C343.413 46.47 343.539 46.2 343.593 45.768L344.259 39.072H350.865ZM361.745 43.932H354.671C354.725 45.516 355.823 46.65 357.389 46.65C358.847 46.65 359.531 45.858 360.053 44.796L361.475 45.642C360.629 47.37 359.369 48.252 357.335 48.252C354.887 48.252 352.835 46.344 352.835 43.536C352.835 40.728 354.887 38.82 357.425 38.82C359.999 38.82 361.745 40.692 361.745 43.284V43.932ZM357.389 40.296C356.039 40.296 354.995 41.25 354.671 42.528H359.999C359.855 41.07 358.613 40.296 357.389 40.296ZM365.51 39.072V42.492H369.506V39.072H371.27V48H369.506V44.076H365.51V48H363.746V39.072H365.51ZM373.696 48V39.072H379.456V40.728H375.532V48H373.696ZM388.63 48H386.794C386.578 47.73 386.344 47.28 386.29 46.434C385.714 47.64 384.634 48.252 383.32 48.252C381.52 48.252 380.278 47.136 380.278 45.498C380.278 43.68 381.718 42.852 383.428 42.564L386.254 42.114V41.736C386.254 40.71 385.624 40.188 384.382 40.188C383.104 40.188 382.528 40.728 382.528 41.358C382.528 41.448 382.51 41.484 382.564 41.628L380.926 42.186C380.836 41.952 380.782 41.718 380.782 41.466C380.782 40.08 382.132 38.82 384.382 38.82C386.83 38.82 388.09 39.9 388.09 41.844V45.768C388.09 46.794 388.216 47.334 388.63 48ZM383.608 46.722C385.21 46.722 386.254 45.444 386.254 43.716V43.464L383.842 43.878C382.708 44.076 382.114 44.544 382.114 45.39C382.114 46.2 382.69 46.722 383.608 46.722ZM397.919 39.072V46.38H398.729V49.908H397.217V48H390.395V39.072H392.231V46.38H396.083V39.072H397.919ZM402.618 39.072V45.534L406.65 39.072H408.594V48H406.83V41.538L402.798 48H400.854V39.072H402.618ZM412.795 39.072V45.534L416.827 39.072H418.771V48H417.007V41.538L412.975 48H411.031V39.072H412.795Z" fill="#0C0C0C"></path> </svg> 