<?xml version="1.0" encoding="UTF-8"?> <svg xmlns="http://www.w3.org/2000/svg" width="227" height="39" viewBox="0 0 227 39" fill="none"> <rect width="227" height="39" rx="19.5" fill="white"></rect> <circle cx="35" cy="19.5" r="5" fill="#E01614"></circle> <path d="M51.458 25H53.33V16.27L53.69 17.278L53.978 18.052L56.858 25H58.73L61.61 18.052L61.898 17.278L62.258 16.27V25H64.13V12.4H62.06L57.794 23.074L53.528 12.4H51.458V25ZM76.5413 20.878C75.5873 22.678 74.2733 23.488 72.5633 23.488C70.0793 23.488 68.2613 21.436 68.2613 18.7C68.2613 15.928 70.2053 13.912 72.5813 13.912C74.3093 13.912 75.5333 14.776 76.4513 16.522L77.9993 15.406C77.1353 13.498 75.1913 12.148 72.6173 12.148C69.1073 12.148 66.2813 14.866 66.2813 18.7C66.2813 22.534 68.9273 25.252 72.5273 25.252C75.2453 25.252 76.7573 24.082 78.0353 21.94L76.5413 20.878ZM92.7449 16.072H85.2209V25H87.0569V17.692H90.9089V25H92.7449V16.072ZM104.24 20.536C104.24 17.458 101.828 15.82 99.47 15.82C97.112 15.82 94.7 17.458 94.7 20.536C94.7 23.65 97.112 25.252 99.47 25.252C101.828 25.252 104.24 23.65 104.24 20.536ZM99.47 23.56C97.904 23.56 96.572 22.354 96.572 20.536C96.572 18.718 97.904 17.512 99.47 17.512C101.036 17.512 102.368 18.718 102.368 20.536C102.368 22.354 101.036 23.56 99.47 23.56ZM110.464 17.656H113.056V25H114.892V17.656H117.484V16.072H110.464V17.656ZM119.287 28.672H121.123V23.776C121.699 24.694 122.833 25.252 124.129 25.252C126.523 25.252 128.413 23.416 128.413 20.536C128.413 17.584 126.523 15.82 124.291 15.82C122.905 15.82 121.681 16.558 121.123 17.44V16.072H119.287V28.672ZM123.769 17.512C125.299 17.512 126.541 18.736 126.541 20.536C126.541 22.336 125.299 23.56 123.769 23.56C122.239 23.56 120.997 22.336 120.997 20.536C120.997 18.736 122.239 17.512 123.769 17.512ZM132.143 16.072H130.379V25H132.323L136.355 18.538V25H138.119V16.072H136.175L132.143 22.534V16.072ZM148.39 25C147.976 24.334 147.85 23.794 147.85 22.768V18.844C147.85 16.9 146.59 15.82 144.142 15.82C141.892 15.82 140.542 17.08 140.542 18.466C140.542 18.718 140.596 18.952 140.686 19.186L142.324 18.628C142.27 18.484 142.288 18.448 142.288 18.358C142.288 17.728 142.864 17.188 144.142 17.188C145.384 17.188 146.014 17.71 146.014 18.736V19.114L143.188 19.564C141.478 19.852 140.038 20.68 140.038 22.498C140.038 24.136 141.28 25.252 143.08 25.252C144.394 25.252 145.474 24.64 146.05 23.434C146.104 24.28 146.338 24.73 146.554 25H148.39ZM143.368 23.722C142.45 23.722 141.874 23.2 141.874 22.39C141.874 21.544 142.468 21.076 143.602 20.878L146.014 20.464V20.716C146.014 22.444 144.97 23.722 143.368 23.722ZM149.118 17.656H151.71V25H153.546V17.656H156.138V16.072H149.118V17.656ZM165.363 16.072H158.757L158.091 22.768C158.037 23.2 157.911 23.47 157.533 23.47C157.371 23.47 157.227 23.434 157.065 23.38L156.795 25C157.137 25.09 157.497 25.126 157.893 25.126C158.991 25.126 159.711 24.478 159.855 22.966L160.377 17.692H163.527V25H165.363V16.072ZM176.873 20.536C176.873 17.458 174.461 15.82 172.103 15.82C169.745 15.82 167.333 17.458 167.333 20.536C167.333 23.65 169.745 25.252 172.103 25.252C174.461 25.252 176.873 23.65 176.873 20.536ZM172.103 23.56C170.537 23.56 169.205 22.354 169.205 20.536C169.205 18.718 170.537 17.512 172.103 17.512C173.669 17.512 175.001 18.718 175.001 20.536C175.001 22.354 173.669 23.56 172.103 23.56ZM180.606 16.072H178.842V25H180.606V21.076H184.602V25H186.366V16.072H184.602V19.492H180.606V16.072ZM188.753 28.6C189.095 28.726 189.563 28.798 190.049 28.798C191.129 28.798 191.975 28.258 192.551 26.8L196.871 16.072H194.837L192.335 22.516L189.815 16.072H187.709L191.345 25.054L190.931 26.152C190.589 26.962 190.337 27.106 189.851 27.106C189.545 27.106 189.257 27.016 189.041 26.926L188.753 28.6Z" fill="#0C0C0C"></path> </svg> 