<?xml version="1.0" encoding="UTF-8"?> <svg xmlns="http://www.w3.org/2000/svg" width="20" height="15" viewBox="0 0 20 15" fill="none"> <path d="M1.3749 6.2183C6.74359 4.17987 10.3236 2.83601 12.1148 2.18672C17.2292 0.332882 18.2919 0.0108502 18.9846 0.000103091C19.1369 -0.00212229 19.4776 0.0307807 19.6982 0.186811C19.8845 0.318559 19.9358 0.496533 19.9603 0.621445C19.9848 0.746357 20.0154 1.03091 19.9911 1.25325C19.714 3.79102 18.5147 9.94952 17.9046 12.7919C17.6465 13.9946 17.1382 14.3978 16.6461 14.4373C15.5766 14.5231 14.7645 13.8213 13.7287 13.2296C12.1078 12.3037 11.1921 11.7273 9.61879 10.8237C7.80053 9.77952 8.97923 9.20561 10.0154 8.26768C10.2866 8.02221 14.9987 4.28707 15.0899 3.94823C15.1013 3.90586 15.1119 3.74789 15.0042 3.66449C14.8965 3.58108 14.7376 3.6096 14.6229 3.63228C14.4604 3.66444 11.871 5.15594 6.85486 8.10679C6.11988 8.54662 5.45416 8.76091 4.8577 8.74968C4.20015 8.7373 2.93528 8.42568 1.99498 8.15931C0.84166 7.83259 -0.074973 7.65986 0.00484519 7.105C0.0464194 6.81599 0.503103 6.52042 1.3749 6.2183Z" fill="white"></path> </svg> 