<?xml version="1.0" encoding="UTF-8"?> <svg xmlns="http://www.w3.org/2000/svg" width="20" height="20" viewBox="0 0 20 20" fill="none"> <path d="M10 1.80724C12.6506 1.80724 13.012 1.80724 14.0964 1.80724C15.0603 1.80724 15.5422 2.04822 15.9036 2.16864C16.3855 2.40962 16.747 2.53011 17.1085 2.89159C17.4699 3.25299 17.7109 3.61447 17.8314 4.09636C17.9519 4.45784 18.0723 4.93973 18.1928 5.9036C18.1928 6.98795 18.1928 7.22894 18.1928 9.99996C18.1928 12.7711 18.1928 13.012 18.1928 14.0964C18.1928 15.0603 17.9519 15.5422 17.8314 15.9036C17.5904 16.3855 17.4699 16.747 17.1085 17.1084C16.747 17.4699 16.3855 17.7109 15.9036 17.8314C15.5422 17.9518 15.0603 18.0723 14.0964 18.1928C13.012 18.1928 12.7711 18.1928 10 18.1928C7.22894 18.1928 6.98795 18.1928 5.9036 18.1928C4.93981 18.1928 4.45784 17.9518 4.09644 17.8314C3.61447 17.5904 3.25299 17.4699 2.89159 17.1084C2.53011 16.747 2.2892 16.3855 2.16871 15.9036C2.04822 15.5422 1.92773 15.0603 1.80724 14.0964C1.80724 13.012 1.80724 12.7711 1.80724 9.99996C1.80724 7.22894 1.80724 6.98795 1.80724 5.9036C1.80724 4.93973 2.04822 4.45784 2.16871 4.09636C2.40962 3.61447 2.53011 3.25299 2.89159 2.89159C3.25299 2.53011 3.61447 2.28913 4.09644 2.16864C4.45784 2.04822 4.93981 1.92773 5.9036 1.80724C6.98795 1.80724 7.34943 1.80724 10 1.80724ZM10 0C7.22894 0 6.98795 0 5.9036 0C4.81932 0 4.09644 0.240986 3.49398 0.481895C2.89159 0.72288 2.28921 1.08436 1.68674 1.68674C1.08436 2.28913 0.843372 2.7711 0.48197 3.49398C0.240985 4.09636 0.120492 4.81924 0 5.9036C0 6.98795 0 7.34943 0 9.99996C0 12.7711 0 13.012 0 14.0964C0 15.1808 0.240985 15.9036 0.48197 16.506C0.722879 17.1084 1.08436 17.7109 1.68674 18.3133C2.28921 18.9156 2.7711 19.1566 3.49398 19.5181C4.09644 19.759 4.81932 19.8795 5.9036 20C6.98795 20 7.34943 20 10 20C12.6506 20 13.012 20 14.0964 20C15.1808 20 15.9036 19.759 16.506 19.5181C17.1085 19.2771 17.7109 18.9156 18.3133 18.3133C18.9157 17.7109 19.1566 17.2289 19.5181 16.506C19.7591 15.9036 19.8795 15.1808 20 14.0964C20 13.012 20 12.6506 20 9.99996C20 7.34943 20 6.98795 20 5.9036C20 4.81924 19.7591 4.09636 19.5181 3.49398C19.2771 2.89159 18.9157 2.28913 18.3133 1.68674C17.7109 1.08436 17.2289 0.843372 16.506 0.481895C15.9036 0.240986 15.1808 0.120492 14.0964 0C13.012 0 12.7711 0 10 0Z" fill="white"></path> <path d="M10.0001 4.81924C7.10846 4.81924 4.81934 7.10845 4.81934 9.99996C4.81934 12.8916 7.10846 15.1808 10.0001 15.1808C12.8916 15.1808 15.1808 12.8916 15.1808 9.99996C15.1808 7.10845 12.8916 4.81924 10.0001 4.81924ZM10.0001 13.3735C8.19282 13.3735 6.62657 11.9277 6.62657 9.99996C6.62657 8.1928 8.07233 6.62648 10.0001 6.62648C11.8073 6.62648 13.3735 8.07231 13.3735 9.99996C13.3735 11.8072 11.8073 13.3735 10.0001 13.3735Z" fill="white"></path> <path d="M15.301 5.90359C15.9665 5.90359 16.5058 5.36416 16.5058 4.69882C16.5058 4.03341 15.9665 3.49397 15.301 3.49397C14.6356 3.49397 14.0962 4.03341 14.0962 4.69882C14.0962 5.36416 14.6356 5.90359 15.301 5.90359Z" fill="white"></path> </svg> 