<?xml version="1.0" encoding="utf-8"?>
<!-- Generator: Adobe Illustrator 28.0.0, SVG Export Plug-In . SVG Version: 6.00 Build 0)  -->
<svg version="1.1" id="Слой_1" xmlns="http://www.w3.org/2000/svg" xmlns:xlink="http://www.w3.org/1999/xlink" x="0px" y="0px"
	 viewBox="0 0 381 304" style="enable-background:new 0 0 381 304;" xml:space="preserve">
<style type="text/css">
	.st0{fill-rule:evenodd;clip-rule:evenodd;fill:#1D1D1B;}
	.st1{fill:#E0501E;}
	.st2{fill:none;stroke:#FFFFFF;stroke-width:1.5393;}
	.st3{fill:#E01614;}
	.st4{fill:#FBFBFB;}
	.st5{fill-rule:evenodd;clip-rule:evenodd;fill:#145AAF;}
	.st6{fill:#0C0C0C;}
	.st7{fill:#145AAF;}
</style>
<g>
	<path class="st0" d="M154.7,229.4v-70.8H76.2l-34.6,70.8H7l42.3-78.5c-12.8-7.2-36.2-27.7-36.2-72.3C13.1,27.7,47.7,0,76.2,0h109.3
		v229.4H154.7z M154.7,36.2v87h-80c-11.5,0-31.4-12.9-30.8-43.1c0.8-37.7,24.6-43.9,30.8-43.9H154.7z"/>
	<path class="st1" d="M76.2,0v36.2c-15.4,0-32.3,14.6-32.3,43.1c0,28.5,16.9,43.9,32.3,43.9v35.4c-23.9,0-63.9-22.3-63.1-79.3
		C13.9,18.9,54.7,0,76.2,0z"/>
	<path class="st2" d="M76.2,24.6c-19.1,0-40,18.4-40,54.2s21,55.1,40,55.1"/>
	<path class="st2" d="M76.2,13.9c-23.5,0-49.3,22-49.3,64.8c0,42.8,25.8,66,49.3,66"/>
	<path class="st2" d="M76.2,4.6c-27.1,0-57,25.1-57,74s29.8,75.3,57,75.3"/>
	<path class="st3" d="M200.9,229.4V0h35.4v192.4h142.4v36.9H200.9z"/>
	<rect x="273.3" y="192.4" class="st4" width="106.2" height="36.9"/>
	<path class="st5" d="M371,209.2c-2.4-1.3-5.3-1.2-7.5,0.3l-7.6,5.1c-5.7,3.8-13.1,3.9-18.9,0.3l-5.5-3.5c-4.3-2.7-9.9-2.7-14.2-0.1
		l-5.3,3.2c-6.1,3.8-14,3.4-19.7-1.1l-4.5-3.5c-2.4-1.9-5.8-2.2-8.5-0.8c-1.7,0.9-3.5,1.3-5.4,1.3h-0.7v-3.8h0.7
		c1.3,0,2.5-0.3,3.6-0.9c4.1-2.1,9-1.6,12.6,1.2l4.5,3.5c4.4,3.4,10.5,3.8,15.3,0.8l5.3-3.2c5.6-3.5,12.7-3.4,18.3,0.1l5.5,3.5
		c4.5,2.8,10.3,2.7,14.7-0.2l7.6-5.1c3.5-2.3,7.9-2.5,11.6-0.4c1.1,0.6,2.3,0.9,3.5,0.9h3v3.8h-3C374.5,210.6,372.7,210.1,371,209.2
		z"/>
	<path class="st5" d="M370.9,198.7c-2.3-1.4-5.2-1.3-7.4,0.3l-7,5.2c-6,4.5-14.2,4.6-20.3,0.3l-4.2-3c-4.6-3.2-10.7-3.2-15.3-0.1
		l-3.9,2.7c-6.5,4.4-15.1,4-21.1-1.2l-4-3.4c-2.3-2-5.6-2.3-8.3-0.8c-1.7,1-3.6,1.5-5.5,1.5h-0.7v-3.8h0.7c1.3,0,2.5-0.3,3.6-0.9
		c4.1-2.3,9.2-1.8,12.7,1.2l4,3.4c4.6,4,11.4,4.4,16.4,0.9l3.9-2.7c5.9-4.1,13.8-4,19.7,0.1l4.2,3c4.8,3.3,11.1,3.2,15.8-0.3l7-5.2
		c3.4-2.6,8.1-2.8,11.7-0.5c1,0.7,2.2,1,3.5,1h3v3.8h-3C374.5,200.3,372.6,199.7,370.9,198.7z"/>
	<path class="st5" d="M370.9,218.7c-2.3-1.4-5.2-1.3-7.4,0.3l-7,5.2c-6,4.5-14.2,4.6-20.3,0.3l-4.2-3c-4.6-3.2-10.7-3.2-15.3-0.1
		l-3.9,2.7c-6.5,4.4-15.1,4-21.1-1.2l-4-3.4c-2.3-2-5.6-2.3-8.3-0.8c-1.7,1-3.6,1.5-5.5,1.5h-0.7v-3.8h0.7c1.3,0,2.5-0.3,3.6-0.9
		c4.1-2.3,9.2-1.8,12.7,1.2l4,3.4c4.6,4,11.4,4.4,16.4,0.9l3.9-2.7c5.9-4.1,13.8-4,19.7,0.1l4.2,3c4.8,3.3,11.1,3.2,15.8-0.3l7-5.2
		c3.4-2.6,8.1-2.8,11.7-0.5c1,0.7,2.2,1,3.5,1h3v3.8h-3C374.5,220.3,372.6,219.7,370.9,218.7z"/>
	<path class="st6" d="M38.5,301.4h9.6L34.7,278c7.9-2.1,12.8-7.5,12.8-15.2c0-8.9-6.9-15.2-18.2-15.2H7v53.9h8.3v-22.7H26
		L38.5,301.4z M15.3,254.7h13.4c7,0,10.5,2.8,10.5,8.4c0,5.5-3.5,8.3-10.5,8.3H15.3V254.7z M56.7,301.4h35.6V294H65v-16.8H90v-7.4
		H65v-14.9h27.1v-7.4H56.7V301.4z M108.6,260.6c0-4.6,4.8-7,10.5-7c6.8,0,11.2,3.5,13.4,10l6.6-3.8c-3-8.6-10.2-13.4-19.9-13.4
		c-10.9,0-18.5,5.8-18.5,14.4c0,9,7.3,14,17.3,15.9c9.3,1.8,13.7,4.2,13.7,9.9c0,4.7-4.3,8.7-11.5,8.7c-8.2,0-13.2-4.6-14.7-13.5
		l-7.3,3.8c1.8,9.6,9.1,17,22.1,17c12.1,0,19.7-7.5,19.7-16.2c0-9-5.7-13.9-17.4-16.1C113.2,268.3,108.6,265.6,108.6,260.6z
		 M143.8,255h16.6v46.3h8.3V255h16.6v-7.5h-41.6V255z"/>
	<path class="st3" d="M201,301.4h35.3V294h-27v-46.5H201V301.4z M243.9,301.4h35.6V294h-27.3v-16.8h24.9v-7.4h-24.9v-14.9h27.1v-7.4
		h-35.4V301.4z M295.8,260.6c0-4.6,4.8-7,10.5-7c6.8,0,11.2,3.5,13.4,10l6.6-3.8c-3-8.6-10.2-13.4-19.9-13.4
		c-10.9,0-18.5,5.9-18.5,14.4c0,9,7.3,14,17.3,15.9c9.3,1.8,13.7,4.2,13.7,9.9c0,4.7-4.3,8.7-11.5,8.7c-8.2,0-13.2-4.6-14.7-13.5
		l-7.3,3.8c1.8,9.6,9.1,17,22.1,17c12.1,0,19.7-7.5,19.7-16.2c0-9-5.7-13.9-17.4-16.1C300.3,268.3,295.8,265.6,295.8,260.6z
		 M344.6,260.6c0-4.6,4.8-7,10.5-7c6.8,0,11.2,3.5,13.4,10l6.6-3.8c-3-8.6-10.2-13.4-19.9-13.4c-10.9,0-18.5,5.9-18.5,14.4
		c0,9,7.3,14,17.3,15.9c9.3,1.8,13.7,4.2,13.7,9.9c0,4.7-4.3,8.7-11.5,8.7c-8.2,0-13.2-4.6-14.7-13.5l-7.3,3.8
		c1.8,9.6,9.1,17,22.1,17c12.1,0,19.7-7.5,19.7-16.2c0-9-5.7-13.9-17.4-16.1C349.1,268.3,344.6,265.6,344.6,260.6z"/>
	<path class="st6" d="M254.7,12.7c0-1.6,1.9-2.6,4-2.6c2.5,0,4.6,1.3,5.7,4.1l3.5-2c-1.6-3.8-4.4-5.7-9.2-5.7
		c-4.3,0-8.2,2.3-8.2,6.4c0,4.1,3.6,6.1,7.8,6.9c3.7,0.7,5.4,1.6,5.4,3.6c0,2-1.9,3.3-4.4,3.3c-3.1,0-5.2-2.2-6.3-5.2l-3.8,2.4
		c1.4,3.7,4.7,6.8,10.1,6.8c5.7,0,8.9-3.4,8.9-7.5c0-3.9-2.5-5.9-7.7-6.9C256.7,15.7,254.7,14.7,254.7,12.7z M273.3,39.6h4.7V27
		c1.5,2.4,4.4,3.8,7.7,3.8c6.2,0,11-4.7,11-12.1c0-7.6-4.9-12.1-10.6-12.1c-3.6,0-6.7,1.9-8.2,4.2V7.2h-4.7V39.6z M284.8,10.9
		c3.9,0,7.1,3.1,7.1,7.8s-3.2,7.8-7.1,7.8c-3.9,0-7.1-3.1-7.1-7.8S280.9,10.9,284.8,10.9z M325,18.7c0-7.9-6.2-12.1-12.3-12.1
		s-12.3,4.2-12.3,12.1c0,8,6.2,12.1,12.3,12.1S325,26.7,325,18.7z M312.7,26.4c-4,0-7.5-3.1-7.5-7.8c0-4.7,3.4-7.8,7.5-7.8
		s7.5,3.1,7.5,7.8C320.1,23.3,316.7,26.4,312.7,26.4z M343.1,6.8c-0.6-0.1-1.1-0.2-1.7-0.2c-3.1,0-5.4,1.8-6.6,4.5V7.2H330v23h4.7
		V18.1c0-4.1,2.4-7.1,5.7-7.1c0.6,0,1.2,0.1,1.8,0.3L343.1,6.8z M345.8,11h3.7v13c0,5.2,3.1,6.8,6.6,6.8c1.3,0,2.5-0.2,3.4-0.6
		l-0.4-4c-0.5,0.1-1.2,0.3-1.7,0.3c-2.2,0-3.1-1.1-3.1-3.4V11h5.1V7.2h-5.1V1h-4.7v6.2h-3.7V11z"/>
	<path class="st7" d="M268.7,72.6c-1.6,3.1-3.6,4.9-7.2,4.9c-4.3,0-7.5-3.1-7.5-8.2c0-5.1,3.4-8.2,7.5-8.2c2.7,0,5.2,1.1,6.9,4.6
		l3.9-2.6c-1.7-4.1-5.6-6.6-10.9-6.6c-6.8,0-12.5,5.2-12.5,12.7c0,7.6,5.5,12.7,12.5,12.7c5.1,0,8.8-2.4,11.1-7L268.7,72.6z
		 M277.3,81.4h5V47.4h-5V81.4z M288.5,72.8c0,6.4,4.1,9.3,8.8,9.3c3.5,0,6.3-1.7,7.8-4.6v3.9h5V57.3h-5v13c0,4.2-2.8,7.2-6.3,7.2
		c-3.5,0-5.4-2-5.4-5.7V57.3h-5V72.8z M316.9,81.4h5v-3.6c1.4,2.3,4.3,4.2,8.2,4.2c6.4,0,11.5-5,11.5-12.7c0-7.7-4.9-12.7-11.3-12.7
		c-3.5,0-6.7,1.7-8.4,4.3V47.4h-5V81.4z M329.1,77.5c-4.1,0-7.5-3.3-7.5-8.2c0-4.9,3.4-8.2,7.5-8.2c4.1,0,7.5,3.3,7.5,8.2
		C336.5,74.2,333.2,77.5,329.1,77.5z"/>
</g>
</svg>
