<?xml version="1.0" encoding="utf-8"?>
<!-- Generator: Adobe Illustrator 28.0.0, SVG Export Plug-In . SVG Version: 6.00 Build 0)  -->
<svg version="1.1" xmlns="http://www.w3.org/2000/svg" xmlns:xlink="http://www.w3.org/1999/xlink" x="0px" y="0px"
	 viewBox="0 0 374.9 302.6" style="enable-background:new 0 0 374.9 302.6;" xml:space="preserve">
<style type="text/css">
	.st0{display:none;}
	.st1{display:inline;fill:#1D1D1B;}
	.st2{fill-rule:evenodd;clip-rule:evenodd;fill:#E0501E;}
	.st3{fill:none;stroke:#FFFFFF;stroke-width:1.54;}
	.st4{fill:#145AAF;}
	.st5{fill:none;stroke:#145AAF;stroke-width:5;stroke-miterlimit:10;}
	.st6{fill:none;stroke:#FFFFFF;stroke-width:5;stroke-miterlimit:10;}
	.st7{fill:#E0501E;}
</style>
<g id="Слой_2">
	
		<image style="display:none;overflow:visible;" width="1280" height="940" xlink:href="C2E2A857.jpg"  transform="matrix(0.3411 0 0 0.3593 -31.1489 -12.766)">
	</image>
</g>
<g id="Слой_1">
	<g id="Рисунок" class="st0">
		
			<image style="display:inline;overflow:visible;opacity:0.3;enable-background:new    ;" width="1284" height="1033" xlink:href="C2E2A851.jpg"  transform="matrix(0.328 0 0 0.3601 -14.6542 -30.835)">
		</image>
	</g>
	<g id="Лого">
		<g id="ЧФ" class="st0">
			<rect class="st1" width="374.9" height="302.6"/>
		</g>
		<g>
			<path class="st2" d="M147.7,229.3v-65.2c0-3.1-2.5-5.6-5.6-5.6H69.2l-34.6,70.8H0l42.3-78.5c-12.8-7.2-36.2-27.7-36.2-72.3
				C6.1,27.7,40.7,0,69.2,0h109.3v229.3H147.7z M147.7,36.2v87h-80c-11.5,0-31.4-12.9-30.8-43.1c0.8-37.7,24.6-43.9,30.8-43.9
				L147.7,36.2z"/>
			<path class="st3" d="M69.2,24.6c-19.1,0-40,18.4-40,54.2s21,55.1,40,55.1"/>
			<path class="st3" d="M69.2,13.9c-23.5,0-49.3,22-49.3,64.8s25.8,66,49.3,66"/>
			<path class="st3" d="M69.2,4.6c-27.1,0-57,25.1-57,74s29.8,75.3,57,75.3"/>
			<line class="st3" x1="69.2" y1="24.6" x2="178.5" y2="24.6"/>
			<line class="st3" x1="69.2" y1="13.9" x2="178.5" y2="13.9"/>
			<line class="st3" x1="69.2" y1="4.6" x2="178.5" y2="4.6"/>
			<path class="st3" d="M165.4,229.4v-71.1c0-7.5-6.1-13.6-13.6-13.6H69.2"/>
			<path class="st3" d="M174.7,229.4v-74.6c0-13-9.3-20.8-20.8-20.8c-49.9,0-84.7-0.1-84.7-0.1"/>
			<path class="st3" d="M68.2,153.9H146c5.3,0,9.6,4.3,9.6,9.6v65.9"/>
		</g>
		<g>
			<polygon class="st4" points="265.9,192.4 229.3,192.4 229.3,0 193.9,0 193.9,229.3 265.9,229.3 			"/>
			<g>
				<path class="st5" d="M264.9,198.7c13.7,0,13.7,8,27.5,8s13.7-8,27.5-8s13.7,8,27.5,8s13.7-8,27.5-8"/>
				<path class="st5" d="M264.9,208.7c13.7,0,13.7,8,27.5,8s13.7-8,27.5-8s13.7,8,27.5,8s13.7-8,27.5-8"/>
				<path class="st5" d="M264.9,218.7c13.7,0,13.7,8,27.5,8s13.7-8,27.5-8s13.7,8,27.5,8s13.7-8,27.5-8"/>
			</g>
			<g>
				<path class="st6" d="M265.9,198.7c-12,0-12,6-24,6s-12-6-24-6s-12,6-24,6"/>
				<path class="st6" d="M265.9,208.7c-12,0-12,6-24,6s-12-6-24-6s-12,6-24,6"/>
				<path class="st6" d="M265.9,218.7c-12,0-12,6-24,6s-12-6-24-6s-12,6-24,6"/>
			</g>
		</g>
		<path class="st7" d="M32.5,301.4h9.6L28.7,278c7.9-2.1,12.8-7.5,12.8-15.2c0-8.9-6.9-15.2-18.2-15.2H1v53.9h8.3v-22.7H20
			L32.5,301.4L32.5,301.4z M9.3,254.7h13.4c7,0,10.5,2.8,10.5,8.4s-3.5,8.3-10.5,8.3H9.3V254.7z M50.8,301.4h35.6V294H59.1v-16.8h25
			v-7.4h-25v-14.9h27.1v-7.4H50.8V301.4L50.8,301.4L50.8,301.4z M102.7,260.6c0-4.6,4.8-7,10.5-7c6.8,0,11.2,3.5,13.4,10l6.6-3.8
			c-3-8.6-10.2-13.4-19.9-13.4c-10.9,0-18.5,5.8-18.5,14.4c0,8.6,7.3,14,17.3,15.9c9.3,1.8,13.7,4.2,13.7,9.9
			c0,4.7-4.3,8.7-11.5,8.7c-8.2,0-13.2-4.6-14.7-13.5l-7.3,3.8c1.8,9.6,9.1,17,22.1,17c12.1,0,19.7-7.5,19.7-16.2
			s-5.7-13.9-17.4-16.1C107.3,268.3,102.7,265.6,102.7,260.6L102.7,260.6L102.7,260.6z M138.2,255.6H155v46h8v-46h17v-8h-42v8H138.2
			L138.2,255.6z"/>
		<path class="st4" d="M193.9,301.4h36.5V294h-27.9v-46.5h-8.6V301.4z M238.2,301.4H275V294h-28.2v-16.8h25.7v-7.4h-25.7v-14.9h28
			v-7.4h-36.6L238.2,301.4L238.2,301.4L238.2,301.4z M291.8,260.6c0-4.6,5-7,10.9-7c7,0,11.6,3.5,13.8,10l6.8-3.8
			c-3.1-8.6-10.5-13.4-20.6-13.4c-11.3,0-19.1,5.9-19.1,14.4c0,9,7.5,14,17.9,15.9c9.6,1.8,14.1,4.2,14.1,9.9
			c0,4.7-4.4,8.7-11.9,8.7c-8.5,0-13.6-4.6-15.2-13.5l-7.5,3.8c1.9,9.6,9.4,17,22.8,17c12.5,0,20.4-7.5,20.4-16.2s-5.9-13.9-18-16.1
			C296.5,268.3,291.8,265.6,291.8,260.6L291.8,260.6L291.8,260.6z M342.3,260.6c0-4.6,5-7,10.9-7c7,0,11.6,3.5,13.8,10l6.8-3.8
			c-3.1-8.6-10.5-13.4-20.6-13.4c-11.3,0-19.1,5.9-19.1,14.4c0,9,7.5,14,17.9,15.9c9.6,1.8,14.1,4.2,14.1,9.9
			c0,4.7-4.4,8.7-11.9,8.7c-8.5,0-13.6-4.6-15.2-13.5l-7.5,3.8c1.9,9.6,9.4,17,22.8,17c12.5,0,20.4-7.5,20.4-16.2s-5.9-13.9-18-16.1
			C346.9,268.3,342.2,265.6,342.3,260.6L342.3,260.6L342.3,260.6z"/>
	</g>
</g>
</svg>
